<svg width="1000" height="322" viewBox="0 0 1000 322" fill="none" xmlns="http://www.w3.org/2000/svg">
<path d="M492.284 61.9254H430.68V72.1005C430.68 73.4046 430.937 74.696 431.435 75.9008C431.934 77.1057 432.664 78.2005 433.585 79.1227C434.506 80.0448 435.6 80.7764 436.803 81.2754C438.006 81.7745 439.296 82.0314 440.599 82.0314H490.088C493.03 82.0367 495.849 83.2091 497.929 85.2917C500.009 87.3743 501.18 90.1974 501.185 93.1426V119.496H454.562C431.615 119.496 411.88 137.139 410.763 160.196C410.487 165.977 411.388 171.754 413.409 177.176C415.43 182.598 418.531 187.552 422.522 191.739C426.513 195.925 431.312 199.256 436.627 201.53C441.942 203.804 447.663 204.973 453.444 204.966H521.226V90.7819C521.22 86.9836 520.467 83.2237 519.009 79.7171C517.551 76.2105 515.417 73.0262 512.729 70.346C510.041 67.6659 506.852 65.5427 503.343 64.0978C499.835 62.6529 496.077 61.9147 492.284 61.9254ZM501.206 184.962H454.176C448.297 185.046 442.605 182.896 438.246 178.947C433.887 174.997 431.184 169.541 430.68 163.676C430.472 160.57 430.902 157.455 431.946 154.522C432.989 151.59 434.622 148.903 436.745 146.629C438.868 144.355 441.435 142.541 444.286 141.301C447.137 140.061 450.213 139.42 453.322 139.419H501.145L501.206 184.962Z" fill="#002D5D"/>
<path d="M793.409 204.844H855.012V194.669C855.012 192.03 853.965 189.499 852.101 187.633C850.238 185.767 847.71 184.718 845.074 184.718H795.584C792.642 184.713 789.823 183.54 787.743 181.458C785.663 179.375 784.492 176.552 784.487 173.607V147.254H831.07C854.016 147.254 873.751 129.59 874.869 106.655C875.145 100.874 874.244 95.0975 872.223 89.6754C870.201 84.2533 867.101 79.2987 863.11 75.1123C859.119 70.9259 854.32 67.5948 849.005 65.3211C843.689 63.0473 837.968 61.8782 832.188 61.8847H764.406V175.845C764.393 179.661 765.134 183.441 766.587 186.968C768.041 190.495 770.177 193.699 772.874 196.395C775.57 199.091 778.773 201.226 782.297 202.676C785.822 204.126 789.599 204.863 793.409 204.844ZM784.487 81.8076H831.517C837.376 81.7386 843.044 83.8864 847.389 87.8217C851.734 91.757 854.434 97.1895 854.951 103.033C855.16 106.139 854.729 109.254 853.686 112.187C852.643 115.119 851.009 117.805 848.887 120.08C846.764 122.354 844.197 124.168 841.346 125.408C838.494 126.648 835.419 127.289 832.31 127.29H784.487V81.8076Z" fill="#002D5D"/>
<path d="M540.837 117.624V204.112H550.796C553.456 204.106 556.004 203.045 557.883 201.16C559.761 199.275 560.816 196.722 560.816 194.059V117.624C560.811 112.716 561.772 107.856 563.643 103.321C565.515 98.7856 568.262 94.6642 571.725 91.1923C575.189 87.7204 579.302 84.9662 583.83 83.087C588.357 81.2079 593.21 80.2406 598.112 80.2406V80.2406C603.011 80.2379 607.863 81.2018 612.39 83.0772C616.917 84.9527 621.031 87.7029 624.496 91.1707C627.962 94.6385 630.711 98.7561 632.586 103.288C634.462 107.82 635.427 112.677 635.427 117.583V194.201C635.427 196.853 636.478 199.397 638.349 201.274C640.22 203.151 642.758 204.208 645.406 204.214H655.406V117.725C655.406 102.511 649.37 87.9193 638.625 77.1609C627.88 66.4025 613.307 60.3585 598.112 60.3585V60.3585C582.937 60.3638 568.385 66.3963 557.647 77.1322C546.91 87.868 540.864 102.43 540.837 117.624V117.624Z" fill="#002D5D"/>
<path d="M992.14 71.8566V61.9257H928.626C917.761 61.9311 907.342 66.2552 899.659 73.9479C891.976 81.6405 887.658 92.0724 887.652 102.952V102.952C887.674 113.818 892 124.232 899.682 131.909C907.364 139.585 917.773 143.896 928.626 143.896H958.869C964.374 143.901 969.653 146.095 973.544 149.995C977.435 153.895 979.62 159.181 979.62 164.694C979.62 167.422 979.083 170.124 978.041 172.645C976.998 175.166 975.469 177.456 973.542 179.386C971.615 181.315 969.328 182.846 966.81 183.89C964.292 184.934 961.594 185.471 958.869 185.471H905.131C902.479 185.471 899.936 186.526 898.061 188.404C896.185 190.282 895.132 192.828 895.132 195.484V205.475H958.645C969.512 205.475 979.934 201.153 987.618 193.459C995.302 185.765 999.619 175.33 999.619 164.45V164.45C999.614 153.571 995.295 143.139 987.612 135.446C979.929 127.753 969.511 123.429 958.645 123.424H928.403C925.676 123.424 922.976 122.886 920.457 121.84C917.938 120.795 915.649 119.263 913.722 117.331C911.795 115.399 910.267 113.107 909.225 110.583C908.184 108.06 907.649 105.356 907.652 102.626V102.626C907.652 97.1154 909.838 91.8306 913.729 87.9341C917.621 84.0376 922.899 81.8485 928.403 81.8485H982.14C984.789 81.8485 987.329 80.7964 989.204 78.9231C991.079 77.0499 992.135 74.5085 992.14 71.8566V71.8566Z" fill="#002D5D"/>
<path d="M746.033 70.5132C746.033 67.8686 744.984 65.3324 743.116 63.4623C741.248 61.5923 738.715 60.5417 736.074 60.5417H712.233V29.2228C712.233 26.5782 711.184 24.0419 709.317 22.1718C707.449 20.3018 704.916 19.2513 702.274 19.2513H692.336V60.5417H668.475C667.168 60.5417 665.874 60.7998 664.667 61.3011C663.46 61.8025 662.363 62.5374 661.44 63.4636C660.517 64.3898 659.785 65.4891 659.287 66.6988C658.789 67.9085 658.534 69.2047 658.536 70.5132V70.5132C658.536 73.1543 659.583 75.6876 661.446 77.557C663.309 79.4265 665.837 80.4794 668.475 80.4848H692.336V191.474C692.333 193.24 692.678 194.989 693.351 196.621C694.024 198.252 695.012 199.736 696.258 200.985C697.503 202.234 698.983 203.225 700.612 203.902C702.241 204.578 703.987 204.926 705.75 204.926H746.033V194.853C746.033 193.559 745.779 192.278 745.284 191.083C744.79 189.888 744.065 188.803 743.152 187.888C742.238 186.973 741.154 186.248 739.96 185.753C738.767 185.258 737.488 185.003 736.196 185.003H715.221C714.448 184.998 713.709 184.687 713.165 184.138C712.62 183.589 712.315 182.846 712.315 182.073V80.4848H736.155C738.782 80.4634 741.295 79.4034 743.145 77.5356C744.995 75.6679 746.033 73.1438 746.033 70.5132V70.5132Z" fill="#002D5D"/>
<path d="M425.111 239.602C426.785 236.564 429.26 234.045 432.265 232.317C435.316 230.556 438.784 229.65 442.305 229.692C446.314 229.6 450.26 230.698 453.646 232.846C456.907 234.957 459.384 238.081 460.699 241.739H454.602C453.61 239.456 451.952 237.527 449.846 236.204C447.601 234.862 445.02 234.191 442.407 234.271C439.792 234.226 437.213 234.895 434.948 236.204C432.738 237.511 430.942 239.415 429.765 241.699C428.534 244.304 427.895 247.15 427.895 250.032C427.895 252.914 428.534 255.76 429.765 258.365C430.948 260.644 432.743 262.547 434.948 263.86C437.217 265.161 439.793 265.828 442.407 265.793C445.017 265.869 447.595 265.206 449.846 263.88C451.952 262.575 453.61 260.658 454.602 258.386H460.699C459.372 262.015 456.895 265.11 453.646 267.197C450.25 269.319 446.308 270.401 442.305 270.311C438.787 270.35 435.322 269.451 432.265 267.706C429.268 266.004 426.794 263.513 425.111 260.502C423.391 257.288 422.49 253.699 422.49 250.052C422.49 246.406 423.391 242.816 425.111 239.602V239.602Z" fill="#52B5E5"/>
<path d="M476.348 268.479C473.977 267.166 472.036 265.194 470.759 262.801C469.367 260.179 468.668 257.244 468.726 254.275C468.656 251.324 469.357 248.406 470.759 245.809C472.072 243.426 474.04 241.47 476.429 240.172C478.907 238.876 481.662 238.199 484.458 238.199C487.253 238.199 490.008 238.876 492.486 240.172C494.869 241.469 496.835 243.417 498.156 245.789C499.568 248.389 500.269 251.316 500.189 254.275C500.285 257.248 499.583 260.192 498.156 262.801C496.797 265.202 494.789 267.17 492.364 268.479C489.872 269.842 487.073 270.543 484.234 270.514C481.474 270.527 478.758 269.826 476.348 268.479V268.479ZM489.518 264.592C491.228 263.71 492.642 262.344 493.583 260.665C494.642 258.706 495.162 256.501 495.087 254.275C495.154 252.054 494.65 249.854 493.624 247.885C492.728 246.238 491.382 244.883 489.742 243.978C488.148 243.126 486.366 242.685 484.559 242.696C482.744 242.673 480.953 243.114 479.356 243.978C477.731 244.875 476.409 246.235 475.555 247.885C474.552 249.861 474.063 252.059 474.133 254.275C474.062 256.508 474.544 258.724 475.535 260.726C476.365 262.366 477.659 263.724 479.255 264.633C480.832 265.491 482.602 265.933 484.397 265.915C486.221 265.919 488.017 265.464 489.62 264.592H489.518Z" fill="#52B5E5"/>
<path d="M514.58 227.759V269.965H509.397V227.759H514.58Z" fill="#52B5E5"/>
<path d="M525.696 245.809C526.898 243.466 528.746 241.516 531.021 240.192C533.324 238.837 535.951 238.133 538.623 238.157C540.984 238.144 543.311 238.725 545.39 239.846C547.36 240.856 549.018 242.382 550.187 244.262V227.718H555.41V269.924H550.187V264.043C549.105 265.961 547.525 267.55 545.614 268.642C543.472 269.875 541.032 270.495 538.561 270.433C535.908 270.467 533.298 269.762 531.021 268.398C528.736 267.024 526.888 265.026 525.696 262.639C524.334 260.034 523.635 257.133 523.664 254.193C523.629 251.272 524.328 248.389 525.696 245.809V245.809ZM548.764 248.129C547.884 246.437 546.546 245.026 544.903 244.059C543.284 243.144 541.457 242.663 539.598 242.663C537.739 242.663 535.912 243.144 534.293 244.059C532.652 245.015 531.324 246.43 530.472 248.129C529.491 250.011 529.002 252.111 529.05 254.234C528.993 256.403 529.482 258.552 530.472 260.482C531.342 262.169 532.665 263.578 534.293 264.552C535.894 265.494 537.721 265.98 539.578 265.956C541.447 265.977 543.287 265.492 544.903 264.552C546.55 263.59 547.89 262.178 548.764 260.482C549.728 258.593 550.216 256.497 550.187 254.376C550.251 252.207 549.762 250.056 548.764 248.129V248.129Z" fill="#52B5E5"/>
<path d="M604.86 269.965L595.389 253.685H589.21V269.965H584.027V230.221H596.852C599.469 230.143 602.069 230.665 604.453 231.747C606.364 232.619 607.975 234.034 609.087 235.817C610.138 237.633 610.672 239.702 610.632 241.8C610.671 244.41 609.841 246.959 608.274 249.045C606.487 251.225 603.964 252.674 601.181 253.115L611.14 269.782L604.86 269.965ZM589.129 249.615H596.771C597.906 249.712 599.05 249.582 600.135 249.233C601.221 248.883 602.225 248.321 603.092 247.58C603.791 246.842 604.333 245.968 604.682 245.013C605.032 244.057 605.182 243.04 605.124 242.024C605.19 241.02 605.042 240.013 604.692 239.07C604.342 238.126 603.796 237.267 603.092 236.55C601.312 235.091 599.045 234.363 596.75 234.515H589.21L589.129 249.615Z" fill="#52B5E5"/>
<path d="M626.526 268.479C624.161 267.158 622.222 265.188 620.937 262.801C619.545 260.179 618.846 257.244 618.904 254.275C618.834 251.324 619.535 248.406 620.937 245.809C622.25 243.426 624.218 241.47 626.607 240.172C629.085 238.876 631.839 238.199 634.635 238.199C637.431 238.199 640.186 238.876 642.664 240.172C645.05 241.465 647.017 243.413 648.334 245.789C649.746 248.389 650.447 251.316 650.366 254.275C650.432 257.257 649.695 260.202 648.232 262.801C646.875 265.196 644.876 267.163 642.46 268.479C639.967 269.837 637.169 270.537 634.33 270.514C631.598 270.511 628.912 269.81 626.526 268.479ZM639.716 264.592C641.379 263.688 642.748 262.325 643.659 260.665C644.726 258.708 645.252 256.503 645.184 254.275C645.245 252.053 644.734 249.852 643.7 247.885C642.81 246.234 641.462 244.877 639.818 243.978C638.216 243.136 636.434 242.697 634.625 242.697C632.816 242.697 631.034 243.136 629.432 243.978C627.808 244.875 626.485 246.235 625.632 247.885C624.638 249.864 624.149 252.06 624.209 254.275C624.138 256.508 624.62 258.724 625.611 260.726C626.443 262.371 627.744 263.731 629.351 264.633C630.92 265.494 632.684 265.936 634.473 265.915C636.303 265.916 638.105 265.462 639.716 264.592V264.592Z" fill="#52B5E5"/>
<path d="M665.243 268.479C662.882 267.16 660.949 265.19 659.674 262.802C658.273 260.183 657.573 257.245 657.642 254.275C657.562 251.323 658.263 248.402 659.674 245.809C660.987 243.433 662.946 241.478 665.324 240.172C667.806 238.876 670.564 238.199 673.363 238.199C676.162 238.199 678.919 238.876 681.401 240.172C683.78 241.468 685.74 243.416 687.051 245.789C688.439 248.409 689.165 251.329 689.165 254.295C689.165 257.261 688.439 260.182 687.051 262.802C685.692 265.202 683.684 267.17 681.259 268.479C678.767 269.841 675.968 270.542 673.129 270.514C670.37 270.525 667.654 269.824 665.243 268.479V268.479ZM678.434 264.592C680.095 263.679 681.467 262.318 682.397 260.665C683.38 258.679 683.892 256.492 683.892 254.275C683.892 252.058 683.38 249.871 682.397 247.885C681.514 246.236 680.173 244.879 678.535 243.978C676.93 243.136 675.144 242.697 673.332 242.697C671.52 242.697 669.735 243.136 668.129 243.978C666.515 244.883 665.201 246.241 664.349 247.885C663.346 249.861 662.856 252.059 662.926 254.275C662.855 256.508 663.337 258.724 664.328 260.726C665.152 262.37 666.447 263.73 668.048 264.633C669.619 265.489 671.381 265.93 673.17 265.915C675.008 265.925 676.818 265.47 678.434 264.592Z" fill="#52B5E5"/>
<path d="M742.332 239.643C744.25 240.671 745.815 242.252 746.824 244.181C747.998 246.454 748.572 248.99 748.491 251.548V269.965H743.369V252.281C743.54 249.684 742.711 247.121 741.052 245.117C740.249 244.283 739.276 243.629 738.2 243.201C737.124 242.773 735.969 242.58 734.813 242.635C733.618 242.581 732.426 242.785 731.317 243.235C730.209 243.685 729.21 244.368 728.39 245.239C726.663 247.337 725.805 250.017 725.992 252.728V269.965H720.87V252.281C721.041 249.684 720.212 247.121 718.553 245.117C717.75 244.283 716.777 243.629 715.701 243.201C714.625 242.773 713.47 242.58 712.313 242.635C711.119 242.581 709.926 242.785 708.818 243.235C707.71 243.685 706.711 244.368 705.891 245.239C704.164 247.337 703.306 250.017 703.493 252.728V269.965H698.31V238.707H703.493V243.204C704.476 241.604 705.883 240.308 707.557 239.46C709.336 238.57 711.301 238.116 713.289 238.137C715.723 238.089 718.125 238.701 720.24 239.908C722.26 241.104 723.837 242.925 724.732 245.097C725.562 242.951 727.086 241.146 729.061 239.969C731.089 238.742 733.419 238.108 735.788 238.137C738.06 238.09 740.309 238.607 742.332 239.643Z" fill="#52B5E5"/>
<path d="M781.925 234.433V247.722H796.376V251.996H781.925V265.691H798.184V269.965H776.824V230.16H798.184V234.433H781.925Z" fill="#52B5E5"/>
<path d="M824.525 269.965L817.107 258.325L809.993 269.965H804.648L814.81 254.458L804.648 238.707H810.521L817.92 250.286L824.972 238.707H830.378L820.358 254.173L830.521 269.965H824.525Z" fill="#52B5E5"/>
<path d="M847.553 239.989C849.711 238.759 852.163 238.14 854.646 238.198C857.297 238.182 859.903 238.886 862.187 240.233C864.456 241.564 866.303 243.511 867.511 245.85C868.883 248.436 869.582 251.327 869.544 254.255C869.572 257.195 868.874 260.096 867.511 262.7C866.31 265.081 864.465 267.076 862.187 268.459C859.91 269.823 857.299 270.528 854.646 270.494C852.183 270.548 849.752 269.929 847.614 268.703C845.712 267.633 844.116 266.091 842.98 264.226V284.8H837.797V238.707H842.98V244.466C844.079 242.593 845.658 241.048 847.553 239.989V239.989ZM862.735 248.129C861.876 246.428 860.541 245.014 858.894 244.059C857.27 243.14 855.434 242.663 853.569 242.675C851.69 242.649 849.84 243.145 848.226 244.107C846.611 245.07 845.295 246.462 844.423 248.129C843.429 250.008 842.933 252.109 842.98 254.234C842.938 256.359 843.435 258.459 844.423 260.339C845.295 262.006 846.611 263.399 848.226 264.361C849.84 265.324 851.69 265.82 853.569 265.793C855.437 265.808 857.275 265.324 858.894 264.389C860.529 263.419 861.86 262.009 862.735 260.319C863.726 258.389 864.215 256.241 864.158 254.072C864.189 251.983 863.7 249.92 862.735 248.068V248.129Z" fill="#52B5E5"/>
<path d="M906.88 256.269H881.881C881.883 257.588 882.15 258.893 882.666 260.106C883.182 261.32 883.936 262.416 884.885 263.332C885.833 264.247 886.955 264.962 888.185 265.434C889.415 265.905 890.727 266.125 892.043 266.078C894.031 266.156 895.992 265.608 897.653 264.511C899.136 263.496 900.249 262.024 900.823 260.319H906.392C905.607 263.26 903.843 265.844 901.392 267.645C898.674 269.598 895.386 270.592 892.043 270.474C889.262 270.505 886.521 269.803 884.096 268.439C881.759 267.116 879.853 265.144 878.609 262.761C877.217 260.139 876.517 257.204 876.576 254.234C876.502 251.289 877.166 248.371 878.507 245.748C879.724 243.382 881.612 241.428 883.934 240.132C886.417 238.749 889.222 238.047 892.064 238.097C894.818 238.076 897.53 238.777 899.929 240.132C902.149 241.378 903.974 243.226 905.193 245.464C906.453 247.821 907.09 250.462 907.042 253.136C907.042 254.133 906.982 255.252 906.88 256.269ZM900.376 246.949C899.526 245.546 898.291 244.416 896.819 243.693C895.265 242.95 893.562 242.574 891.84 242.594C889.372 242.534 886.976 243.431 885.153 245.097C883.232 246.916 882.095 249.412 881.983 252.057H901.697C901.743 250.264 901.285 248.494 900.376 246.949V246.949Z" fill="#52B5E5"/>
<path d="M925.231 239.623C927.096 238.595 929.2 238.082 931.329 238.137V243.51H929.967C924.154 243.51 921.248 246.664 921.248 252.973V269.965H916.065V238.707H921.248V243.795C922.14 242.044 923.525 240.594 925.231 239.623V239.623Z" fill="#52B5E5"/>
<path d="M946.004 243.042V261.357C945.889 262.519 946.232 263.68 946.959 264.593C947.925 265.321 949.131 265.656 950.333 265.529H954.134V269.924H949.479C947.133 270.087 944.812 269.361 942.976 267.889C942.187 267.007 941.589 265.972 941.218 264.848C940.848 263.724 940.712 262.536 940.821 261.357V243.042H936.756V238.768H940.821V230.832H946.004V238.707H954.134V243.042H946.004Z" fill="#52B5E5"/>
<path d="M967.243 269.253C965.461 268.537 963.903 267.357 962.731 265.834C961.633 264.373 961.003 262.614 960.922 260.787H966.268C966.332 261.544 966.562 262.277 966.941 262.935C967.32 263.593 967.84 264.159 968.463 264.593C969.97 265.649 971.787 266.172 973.625 266.078C975.278 266.173 976.915 265.715 978.279 264.776C978.808 264.399 979.238 263.902 979.535 263.325C979.832 262.748 979.987 262.108 979.987 261.459C980.007 260.83 979.848 260.209 979.527 259.668C979.207 259.127 978.739 258.689 978.178 258.406C976.38 257.511 974.483 256.828 972.527 256.371C970.598 255.882 968.704 255.263 966.857 254.519C965.405 253.894 964.123 252.932 963.117 251.711C962.011 250.34 961.446 248.608 961.532 246.847C961.529 245.268 962.027 243.729 962.955 242.452C964.005 241.052 965.408 239.956 967.02 239.277C968.915 238.474 970.958 238.079 973.015 238.117C976.028 237.976 978.994 238.905 981.389 240.742C982.443 241.622 983.294 242.719 983.883 243.959C984.472 245.199 984.787 246.553 984.803 247.926H979.621C979.581 247.164 979.379 246.419 979.029 245.742C978.678 245.065 978.187 244.47 977.588 243.998C976.231 243.08 974.643 242.566 973.006 242.515C971.369 242.465 969.751 242.88 968.341 243.713C967.82 244.052 967.394 244.516 967.103 245.065C966.811 245.613 966.664 246.226 966.674 246.847C966.662 247.313 966.744 247.777 966.915 248.211C967.086 248.645 967.343 249.039 967.67 249.371C968.391 250.074 969.249 250.621 970.19 250.978C971.186 251.365 972.589 251.813 974.377 252.322C976.235 252.803 978.061 253.401 979.844 254.112C981.241 254.697 982.48 255.604 983.462 256.758C984.506 258.068 985.059 259.702 985.027 261.377C985.04 263.027 984.543 264.641 983.604 265.997C982.567 267.424 981.162 268.542 979.54 269.232C977.659 270.036 975.629 270.431 973.584 270.392C971.416 270.44 969.26 270.052 967.243 269.253V269.253Z" fill="#52B5E5"/>
<path d="M343.833 201.995L295.055 286.53C288.855 297.318 279.924 306.278 269.162 312.505C258.399 318.733 246.187 322.008 233.756 322H136.199C118.709 321.993 101.841 315.505 88.8438 303.787C92.3684 305.431 96.0179 306.792 99.7579 307.857C100.774 308.182 101.79 308.426 102.725 308.691C103.66 308.956 104.88 309.2 105.957 309.383C107.034 309.566 108.497 309.831 109.818 310.014H110.083C110.977 310.156 111.912 310.278 112.867 310.339L115.286 310.522C116.668 310.522 118.009 310.665 119.35 310.665H216.765C229.189 310.655 241.392 307.372 252.148 301.146C262.904 294.92 271.835 285.97 278.043 275.195L326.821 190.599C330.744 183.811 333.492 176.408 334.951 168.702C335.154 167.563 335.398 166.484 335.52 165.345C335.642 164.205 335.784 163.452 335.906 162.496C336.604 155.465 336.282 148.371 334.951 141.433C334.038 136.887 332.677 132.442 330.886 128.165C329.687 125.297 328.33 122.498 326.821 119.781V119.781L278.043 35.2667C276.132 32.0461 274.014 28.953 271.702 26.0073C270.503 24.5421 269.303 23.199 268.023 21.9373C266.807 20.5982 265.518 19.3277 264.161 18.1318C277.087 24.2695 287.836 34.2084 294.973 46.622L343.752 131.075C349.991 141.846 353.283 154.073 353.297 166.524C353.312 178.975 350.047 191.21 343.833 201.995V201.995Z" fill="#002D5D"/>
<path d="M186.036 96.9887L178.069 95.0758C176.402 96.0933 173.171 97.6807 170.447 96.1544C166.077 93.8142 166.382 90.5174 166.586 89.3778L161.322 84.9822L186.036 96.9887Z" fill="#3CB4E5"/>
<path d="M336.049 162.537C335.927 163.493 335.785 164.429 335.663 165.386C335.541 166.342 335.297 167.604 335.094 168.743C306.965 159.158 270.767 153.969 250.931 128.389C236.866 110.237 222.802 109.484 221.034 109.097C230.525 102.768 238.065 93.6921 231.419 84.9823C224.265 75.784 204.794 75.2142 189.145 84.616C185.222 82.3978 181.36 79.9151 177.295 78.0835C161.036 70.6557 144.777 63.3501 128.517 56.6346C128.488 56.6216 128.457 56.6149 128.426 56.6149C128.394 56.6149 128.363 56.6216 128.334 56.6346C129.367 57.4475 130.201 58.4862 130.772 59.6713C131.342 60.8564 131.635 62.1565 131.627 63.4722C131.627 64.9525 131.254 66.4089 130.544 67.7071C129.834 69.0053 128.808 70.1033 127.562 70.8999C127.337 71.0201 127.107 71.1289 126.871 71.2256C119.277 74.9217 113.334 81.3221 110.205 89.1744C110.53 98.9212 113.923 108.316 119.9 116.016C124.391 121.674 129.33 127.066 133.781 132.642C163.943 170.962 187.255 212.476 191.441 262.151C192.397 273.262 192.519 296.298 192.397 310.767H119.575C118.192 310.767 116.851 310.767 115.51 310.625L113.091 310.441C112.136 310.441 111.201 310.258 110.306 310.116H110.042C108.721 309.933 107.461 309.749 106.181 309.485C104.9 309.22 104.026 309.037 102.949 308.793C101.872 308.549 100.917 308.284 99.9818 307.959C96.2418 306.894 92.5923 305.533 89.0677 303.889C76.1902 297.711 65.4784 287.78 58.3372 275.398L9.5588 190.925C3.29827 180.155 0 167.916 0 155.455C0 142.993 3.29827 130.755 9.5588 119.985L58.3372 35.4093C64.5344 24.6287 73.4642 15.6774 84.224 9.45986C94.9838 3.24236 107.192 -0.0208618 119.615 0.000100358H217.172C234.676 -0.00277012 251.553 6.52733 264.507 18.3152C265.864 19.5111 267.153 20.7815 268.369 22.1207C269.649 23.4434 270.848 24.7866 272.048 26.1907C274.447 29.0848 276.589 32.183 278.45 35.45L327.228 119.964C328.761 122.669 330.119 125.47 331.293 128.348C333.084 132.625 334.445 137.07 335.358 141.617C336.587 148.521 336.82 155.566 336.049 162.537V162.537Z" fill="#3CB4E5"/>
<path d="M131.546 63.411C131.546 64.8913 131.174 66.3478 130.463 67.646C129.753 68.9442 128.727 70.0423 127.481 70.8389C127.256 70.9591 127.026 71.0678 126.79 71.1644C119.196 74.8605 113.253 81.261 110.124 89.1133C109.743 81.3152 111.33 73.5467 114.738 66.5247C115.956 64.0193 117.448 61.6576 119.189 59.4835C119.937 58.6909 120.844 58.0667 121.851 57.652C123.819 56.562 126.1 56.1812 128.314 56.5734C129.336 57.3925 130.158 58.434 130.718 59.6187C131.278 60.8035 131.561 62.1004 131.546 63.411V63.411Z" fill="white"/>
<path d="M186.036 96.9887L178.069 95.0758C176.402 96.0933 173.171 97.6807 170.447 96.1544C166.077 93.8142 166.382 90.5174 166.586 89.3778L161.322 84.9822L186.036 96.9887Z" fill="white"/>
<path d="M186.036 96.9888L178.048 95.0759L171.402 93.4886L166.586 89.3779L161.322 84.9822L186.036 96.9888Z" fill="#002D5D"/>
<path d="M179.145 94.2618C178.81 94.5626 178.449 94.8348 178.068 95.0758C176.402 96.0933 173.17 97.6806 170.447 96.1544C166.077 93.8141 166.382 90.5174 166.585 89.3777C166.612 89.2449 166.653 89.1153 166.707 88.9911L179.145 94.2618Z" fill="#002D5D"/>
<path d="M131.546 63.4109C131.546 64.8912 131.174 66.3477 130.464 67.6459C129.753 68.9441 128.727 70.0422 127.481 70.8387C127.257 70.959 127.026 71.0676 126.79 71.1643C125.582 71.8012 124.233 72.1232 122.868 72.1004C121.108 72.106 119.388 71.5757 117.936 70.5799C116.484 69.584 115.369 68.1697 114.738 66.5245C114.362 65.5296 114.169 64.4746 114.169 63.4109C114.165 61.7019 114.652 60.0277 115.571 58.5879L116.019 57.9571C116.019 57.9571 116.14 57.9571 116.14 57.835C116.14 57.7129 116.405 57.6519 116.527 57.5094C117.315 56.6034 118.29 55.8795 119.385 55.3876C120.48 54.8957 121.668 54.6476 122.868 54.6604C124.851 54.6385 126.779 55.3156 128.315 56.5733C129.337 57.3924 130.159 58.4338 130.719 59.6186C131.279 60.8034 131.562 62.1003 131.546 63.4109V63.4109Z" fill="#002D5D"/>
<path d="M250.931 128.389C236.867 110.237 222.802 109.484 221.034 109.097C230.525 102.768 238.066 93.6922 231.42 84.9823C224.265 75.7841 204.795 75.2143 189.145 84.616C185.222 82.3979 181.361 79.9151 177.296 78.0836C161.036 70.6558 144.777 63.3502 128.517 56.6346C128.489 56.6217 128.458 56.615 128.426 56.615C128.395 56.615 128.363 56.6217 128.334 56.6346C129.368 57.4476 130.201 58.4863 130.772 59.6714C131.343 60.8565 131.635 62.1566 131.627 63.4722C131.627 64.9525 131.255 66.409 130.544 67.7072C129.834 69.0054 128.808 70.1034 127.562 70.9C127.338 71.0202 127.107 71.1289 126.871 71.2256C119.277 74.9217 113.334 81.3222 110.205 89.1745C110.53 98.9213 113.923 108.316 119.9 116.016C124.392 121.674 129.33 127.066 133.782 132.642C163.943 170.962 187.255 212.476 191.442 262.151C192.397 273.262 192.519 296.298 192.397 310.767H216.989C229.413 310.757 241.616 307.474 252.372 301.248C263.128 295.022 272.059 286.072 278.267 275.297L327.046 190.701C330.968 183.913 333.717 176.51 335.175 168.805C306.965 159.159 270.768 153.969 250.931 128.389ZM178.068 95.0759C176.402 96.0934 173.17 97.6808 170.446 96.1545C166.077 93.8143 166.382 90.5175 166.585 89.3779L161.321 84.9823L186.035 96.9888L178.068 95.0759Z" fill="white"/>
<path d="M127.42 70.8388C127.195 70.9591 126.964 71.0677 126.729 71.1644C119.135 74.8604 113.192 81.2609 110.063 89.1132C110.085 89.1723 110.085 89.2373 110.063 89.2964C109.229 79.4673 111.201 64.8762 115.571 58.588L116.018 57.9571C116.018 57.9571 116.14 57.9571 116.14 57.835C116.14 57.7129 116.404 57.6519 116.526 57.5095C118.285 57.1125 120.116 57.1614 121.851 57.652L123.355 57.9571C123.355 57.9571 133.436 66.7891 127.42 70.8388Z" fill="#002D5D"/>
</svg>
