<svg width="1440" height="574" viewBox="0 0 1440 574" fill="none" xmlns="http://www.w3.org/2000/svg">
<rect width="1440" height="574" fill="url(#paint0_linear_175_3662)"/>
<path d="M1101.81 100.192L1090.38 95.9389C1087.73 97.1449 1082.67 98.9133 1078.92 96.1701C1072.88 91.9292 1073.92 87.1105 1074.42 85.4623L1067.43 78.0233L1101.81 100.192Z" fill="#3CB4E5"/>
<path d="M1027.27 40.8114C1027.01 42.9996 1026.2 45.086 1024.92 46.8779C1023.63 48.6698 1021.92 50.1095 1019.94 51.0641C1019.58 51.2017 1019.22 51.321 1018.86 51.4217C1006.97 55.527 997.042 63.9251 991.012 74.9725C991.843 63.3774 995.578 52.1779 1001.87 42.4076C1004.12 38.922 1006.75 35.698 1009.71 32.7956C1010.96 31.7578 1012.41 30.9974 1013.97 30.5646C1017.08 29.3052 1020.52 29.1504 1023.72 30.1262C1025.08 31.5198 1026.11 33.2063 1026.73 35.0577C1027.35 36.9092 1027.53 38.8768 1027.27 40.8114V40.8114Z" fill="white"/>
<path d="M1101.81 100.192L1090.38 95.9389C1087.73 97.1449 1082.67 98.9133 1078.92 96.1701C1072.88 91.9292 1073.92 87.1105 1074.42 85.4623L1067.43 78.0233L1101.81 100.192Z" fill="white"/>
<path d="M1101.81 100.192L1090.35 95.9354L1080.81 92.4004L1074.42 85.4624L1067.43 78.0233L1101.81 100.192Z" fill="#002D5D"/>
<path d="M1092.12 94.9287C1091.57 95.3132 1090.99 95.6511 1090.38 95.9391C1087.73 97.1451 1082.67 98.9135 1078.92 96.1703C1072.88 91.9294 1073.92 87.1107 1074.42 85.4625C1074.49 85.271 1074.57 85.0867 1074.67 84.9128L1092.12 94.9287Z" fill="#002D5D"/>
<path d="M1027.27 40.8111C1027.01 42.9993 1026.2 45.0857 1024.91 46.8776C1023.63 48.6695 1021.92 50.1092 1019.93 51.0638C1019.58 51.2013 1019.22 51.3207 1018.85 51.4214C1016.95 52.1468 1014.9 52.3815 1012.89 52.1036C1010.29 51.7971 1007.84 50.7056 1005.87 48.9738C1003.9 47.2421 1002.51 44.952 1001.87 42.4073C1001.49 40.8694 1001.4 39.2755 1001.58 37.703C1001.88 35.176 1002.9 32.7884 1004.52 30.8246L1005.29 29.9721C1005.29 29.9721 1005.47 29.9939 1005.5 29.8134C1005.52 29.6329 1005.92 29.59 1006.13 29.4012C1007.45 28.203 1009.02 27.3073 1010.73 26.776C1012.44 26.2447 1014.24 26.0905 1016.01 26.324C1018.94 26.6464 1021.67 27.9922 1023.72 30.1259C1025.08 31.5195 1026.11 33.206 1026.73 35.0574C1027.34 36.9089 1027.53 38.8765 1027.27 40.8111V40.8111Z" fill="#002D5D"/>
<path d="M1192.12 158.214C1174.58 128.866 1153.93 125.238 1151.38 124.35C1166.54 116.692 1179.31 104.625 1171.05 90.5614C1162.12 75.685 1133.44 71.3602 1108.62 82.4586C1103.22 78.4781 1097.96 74.1174 1092.28 70.6831C1069.57 56.7952 1046.84 43.0879 1024.01 30.2529C1023.97 30.2286 1023.92 30.2132 1023.88 30.2075C1023.83 30.2019 1023.78 30.2062 1023.74 30.2202C1025.12 31.6067 1026.17 33.2911 1026.8 35.145C1027.43 36.9989 1027.63 38.973 1027.38 40.9163C1027.12 43.1045 1026.31 45.1908 1025.02 46.9827C1023.74 48.7746 1022.03 50.2142 1020.05 51.1688C1019.69 51.3064 1019.33 51.4259 1018.97 51.5266C1007.08 55.6319 997.15 64.03 991.12 75.0774C989.856 89.5431 993.192 104.037 1000.65 116.489C1006.28 125.655 1012.61 134.509 1018.2 143.548C1055.93 205.585 1082.96 271.121 1080.26 345.298C1079.69 361.893 1075.75 395.967 1072.98 417.333L1109.33 421.732C1127.7 423.939 1146.32 421.269 1163.34 413.989C1180.35 406.71 1195.15 395.078 1206.26 380.26L1293.49 263.937C1300.5 254.605 1305.89 244.153 1309.42 233.024C1269.45 213.72 1216.87 199.575 1192.12 158.214ZM1090.38 95.939C1087.73 97.1449 1082.67 98.9133 1078.92 96.1701C1072.88 91.9292 1073.92 87.1106 1074.42 85.4624L1067.43 78.0233L1101.81 100.192L1090.38 95.939Z" fill="white"/>
<path d="M1019.85 51.0535C1019.49 51.1911 1019.13 51.3104 1018.77 51.4111C1006.88 55.5164 996.952 63.9145 990.922 74.9619C990.944 75.0531 990.932 75.1492 990.889 75.2327C991.416 60.5544 996.939 39.3387 1004.52 30.8252L1005.3 29.9727C1005.3 29.9727 1005.48 29.9945 1005.5 29.814C1005.52 29.6335 1005.92 29.5906 1006.13 29.4018C1008.8 29.1296 1011.5 29.5294 1013.97 30.5649L1016.14 31.285C1016.14 31.285 1029.46 46.1434 1019.85 51.0535Z" fill="#002D5D"/>
<defs>
<linearGradient id="paint0_linear_175_3662" x1="720" y1="0" x2="720" y2="574" gradientUnits="userSpaceOnUse">
<stop stop-color="#52B5E5" stop-opacity="0.2"/>
<stop offset="1" stop-color="#C4C4C4" stop-opacity="0"/>
</linearGradient>
</defs>
</svg>
