<svg width="424" height="389" viewBox="0 0 424 389" fill="none" xmlns="http://www.w3.org/2000/svg">
<path d="M129.113 65.8253L118.765 62.2817C116.422 63.4244 111.928 65.1277 108.501 62.7571C102.988 59.0977 103.808 54.7549 104.221 53.266L97.7778 46.7628L129.113 65.8253Z" fill="#3CB4E5"/>
<path d="M60.9209 14.3533C60.7349 16.3205 60.0573 18.2093 58.95 19.8452C57.8427 21.4811 56.3414 22.8115 54.5852 23.7135C54.2715 23.845 53.9515 23.9604 53.626 24.0592C43.0697 28.0166 34.3674 35.7754 29.2219 45.8172C29.6955 35.4062 32.7806 25.2818 38.1926 16.3783C40.1258 13.2018 42.4065 10.251 44.9927 7.58046C46.0862 6.62124 47.3709 5.90577 48.7614 5.48129C51.513 4.27998 54.5927 4.0607 57.4859 4.86028C58.741 6.07729 59.7028 7.56465 60.298 9.20952C60.8932 10.8544 61.1061 12.6134 60.9209 14.3533Z" fill="white"/>
<path d="M129.113 65.8253L118.765 62.2817C116.422 63.4244 111.928 65.1277 108.501 62.7571C102.988 59.0977 103.808 54.7549 104.221 53.266L97.7778 46.7628L129.113 65.8253Z" fill="white"/>
<path d="M129.113 65.8254L118.738 62.2792L110.105 59.3344L104.221 53.266L97.7778 46.7628L129.113 65.8254Z" fill="#002D5D"/>
<path d="M120.3 61.3356C119.816 61.693 119.303 62.0095 118.766 62.2818C116.423 63.4245 111.929 65.1278 108.502 62.7572C102.989 59.0978 103.809 54.755 104.222 53.2661C104.275 53.0929 104.345 52.9258 104.433 52.7675L120.3 61.3356Z" fill="#002D5D"/>
<path d="M60.918 14.3532C60.7321 16.3205 60.0545 18.2093 58.9472 19.8452C57.8398 21.4811 56.3385 22.8115 54.5824 23.7134C54.2687 23.845 53.9486 23.9604 53.6232 24.0592C51.9374 24.7538 50.1044 25.0121 48.2928 24.8102C45.9533 24.5964 43.734 23.6755 41.9297 22.1696C40.1253 20.6636 38.821 18.6439 38.1898 16.3783C37.8154 15.0088 37.6917 13.5826 37.8248 12.1689C38.0343 9.89721 38.8915 7.73355 40.2946 5.93574L40.9684 5.15361C40.9684 5.15361 41.1302 5.16893 41.1456 5.00666C41.1609 4.8444 41.5199 4.79657 41.6999 4.62259C42.8612 3.51764 44.2481 2.67813 45.7648 2.16207C47.2816 1.646 48.8921 1.46562 50.4851 1.63344C53.1238 1.8537 55.6008 2.9959 57.483 4.86026C58.7382 6.07727 59.6999 7.56464 60.2951 9.2095C60.8903 10.8544 61.1032 12.6134 60.918 14.3532Z" fill="#3CB4E5"/>
<path d="M211.408 115.79C194.999 89.8983 176.402 87.1298 174.101 86.3937C187.51 79.1761 198.672 68.0623 190.934 55.652C182.583 42.5288 156.78 39.3241 134.8 49.8513C129.866 46.4104 125.046 42.6255 119.874 39.6806C99.2002 27.7657 78.5107 16.0131 57.747 5.0447C57.7104 5.02392 57.67 5.01111 57.6281 5.00714C57.5862 5.00318 57.5438 5.00817 57.504 5.02171C58.7748 6.23195 59.7523 7.7171 60.3617 9.36377C60.9711 11.0104 61.1963 12.775 61.0201 14.5224C60.8342 16.4896 60.1562 18.3784 59.0489 20.0143C57.9416 21.6502 56.4406 22.9805 54.6844 23.8824C54.3708 24.014 54.0507 24.1295 53.7253 24.2283C43.1689 28.1857 34.4662 35.9445 29.3208 45.9863C28.5272 58.9801 31.8557 71.8916 38.8305 82.8761C44.0885 90.959 49.9743 98.7464 55.1885 106.716C90.4543 161.431 116.216 219.532 115.536 286.073C115.409 300.959 117.517 314.794 115.536 334.007L139.03 334.007C155.542 335.556 182.03 324.003 190.934 330.04C206.011 323.118 253.53 330.04 277.03 330.04L398.53 286.073C404.596 277.544 402.03 227.578 318.283 180.089C282.006 163.724 234.554 152.277 211.408 115.79ZM118.765 62.3594C116.422 63.5021 111.928 65.2055 108.501 62.8348C102.988 59.1755 103.807 54.8326 104.221 53.3437L97.7775 46.8405L129.112 65.9031L118.765 62.3594Z" fill="white"/>
<path d="M54.5046 23.706C54.191 23.8375 53.8706 23.9529 53.5451 24.0517C42.9888 28.009 34.2864 35.7679 29.141 45.8097C29.1625 45.891 29.1544 45.9774 29.118 46.0532C29.2461 32.8861 33.7001 13.7433 40.2976 5.93591L40.9714 5.15378C40.9714 5.15378 41.1333 5.1691 41.1486 5.00683C41.164 4.84457 41.5229 4.79674 41.7029 4.62276C44.0906 4.31626 46.5169 4.61142 48.7616 5.48144L50.7219 6.07606C50.7219 6.07606 63.0086 19.0804 54.5046 23.706Z" fill="#3CB4E5"/>
</svg>
