<svg width="22" height="22" viewBox="0 0 22 22" fill="none" xmlns="http://www.w3.org/2000/svg">
<g clip-path="url(#clip0_1924_2320)">
<path d="M22 2.36425V19.6357C21.9876 19.6606 21.972 19.6855 21.9658 19.7135C21.6952 21.1321 20.653 21.9969 19.2034 22C17.6355 22 16.0676 22 14.4997 22C13.9429 22 13.7065 21.7605 13.7065 21.2005C13.7065 18.6745 13.7065 16.1454 13.7065 13.6193C13.7065 13.0625 13.9429 12.8261 14.506 12.8261C15.1499 12.8261 15.7939 12.8261 16.4378 12.8261C16.5125 12.8261 16.5902 12.8199 16.6742 12.8167V10.9782C16.584 10.9782 16.5062 10.9782 16.4285 10.9782C15.7627 10.9782 15.097 10.9813 14.4313 10.9782C13.9553 10.9751 13.7034 10.72 13.7034 10.2441C13.7034 9.42902 13.7034 8.61086 13.7034 7.79581C13.7034 7.26697 13.9989 6.97144 14.5277 6.96833C15.1655 6.96833 15.8032 6.96833 16.4409 6.96833C16.5187 6.96833 16.5933 6.96833 16.668 6.96833V5.12047C15.9401 5.12047 15.2339 5.12047 14.5246 5.12047C12.9754 5.1267 11.8586 6.24039 11.8555 7.78959C11.8555 8.59219 11.8555 9.3948 11.8555 10.1943C11.8555 10.7387 11.6191 10.9751 11.0685 10.9751C10.4183 10.9751 9.76501 10.9751 9.11484 10.9751C9.04018 10.9751 8.96552 10.9844 8.89086 10.9876V12.8261C8.98418 12.8261 9.06195 12.8261 9.13972 12.8261C9.78989 12.8261 10.4432 12.8261 11.0933 12.8261C11.6129 12.8261 11.8555 13.0749 11.8555 13.5913C11.8555 16.1391 11.8555 18.69 11.8555 21.2378C11.8555 21.7542 11.6066 22 11.0902 22C8.31224 22 5.53424 22 2.75624 22C2.53537 22 2.31139 21.9813 2.09674 21.9316C0.824396 21.6329 0.00312949 20.5752 1.86267e-05 19.2282C1.86267e-05 14.366 1.86267e-05 9.50368 1.86267e-05 4.64451C1.86267e-05 3.97879 -0.00620309 3.31307 1.86267e-05 2.64734C0.0217946 1.49943 0.749736 0.50707 1.8292 0.1431C2.00652 0.0839932 2.18695 0.0466629 2.36427 0H19.6389C19.67 0.0124434 19.7042 0.0311086 19.7353 0.0373303C20.5815 0.177319 21.2316 0.619061 21.6454 1.36878C21.8134 1.67364 21.8849 2.03139 22.0031 2.36425H22ZM15.0161 20.7028C15.1064 20.7028 15.1717 20.7028 15.237 20.7028C16.556 20.7028 17.8719 20.7028 19.1909 20.7028C20.1273 20.7028 20.7059 20.1273 20.7059 19.1909C20.7059 13.7282 20.7059 8.26555 20.7059 2.79977C20.7059 1.87585 20.1242 1.29723 19.2002 1.29723C13.7376 1.29723 8.27491 1.29723 2.80912 1.29723C2.64736 1.29723 2.47626 1.31278 2.32072 1.35322C1.66433 1.53054 1.29725 2.06561 1.29725 2.83399C1.29725 8.27489 1.29725 13.7189 1.29725 19.1598C1.29725 20.1273 1.86653 20.6997 2.82779 20.6997C5.32581 20.6997 7.82694 20.6997 10.325 20.6997C10.3996 20.6997 10.4743 20.6934 10.5489 20.6903V14.1233C10.4556 14.1233 10.3778 14.1233 10.3001 14.1233C9.64057 14.1233 8.98107 14.1233 8.32468 14.1233C7.83627 14.1233 7.57496 13.8651 7.57185 13.386C7.56874 12.3906 7.56874 11.3951 7.57185 10.3996C7.57185 9.92986 7.83938 9.67477 8.31223 9.67166C8.97796 9.67166 9.64368 9.67166 10.3094 9.67166C10.3872 9.67166 10.4618 9.67166 10.5614 9.67166C10.5614 9.57211 10.5614 9.49434 10.5614 9.41657C10.5614 8.80062 10.5521 8.18467 10.5676 7.56872C10.6236 5.51866 12.2786 3.86991 14.3317 3.82325C15.3054 3.80147 16.2791 3.81702 17.2528 3.81702C17.7381 3.81702 17.9901 4.07212 17.9932 4.56052C17.9932 5.54044 17.9932 6.52347 17.9932 7.50339C17.9932 8.00735 17.7444 8.25311 17.2373 8.25311C16.5716 8.25311 15.9058 8.25311 15.2401 8.25311C15.1655 8.25311 15.0877 8.25933 15.0192 8.26244V9.66544C15.7596 9.66544 16.4814 9.66544 17.2031 9.66544C17.7444 9.66544 17.9932 9.9112 17.9932 10.4525C17.9932 11.4106 17.9932 12.3719 17.9932 13.33C17.9932 13.8713 17.7444 14.1171 17.2031 14.1171C16.5529 14.1171 15.8996 14.1171 15.2495 14.1171C15.1748 14.1171 15.097 14.1233 15.013 14.1264V20.6934L15.0161 20.7028Z" fill="white"/>
</g>
<defs>
<clipPath id="clip0_1924_2320">
<rect width="22" height="22" fill="white"/>
</clipPath>
</defs>
</svg>
