<svg width="22" height="22" viewBox="0 0 22 22" fill="none" xmlns="http://www.w3.org/2000/svg">
<g clip-path="url(#clip0_1937_2475)">
<path d="M21.9907 6.07551C21.9782 3.73614 20.9451 1.95673 18.9287 0.768384C18.0294 0.239538 17.0337 0.012445 15.9912 0.012445C12.6617 0.012445 9.33211 -0.0186636 6.00566 0.0217776C3.43536 0.0528862 1.59321 1.29101 0.491655 3.6086C0.236492 4.14678 0.102687 4.72851 0.0373409 5.32268C0.0280057 5.40045 0.012447 5.47512 0 5.54978V16.4596C0.0591231 16.7955 0.0902404 17.1408 0.180481 17.4675C0.852617 19.866 2.41471 21.3405 4.84498 21.8911C5.07525 21.944 5.30863 21.9658 5.54201 22H16.4518C16.7878 21.9409 17.1332 21.9098 17.4631 21.8196C19.856 21.1476 21.3341 19.5922 21.8755 17.1688C21.9658 16.7675 21.9876 16.3445 21.9876 15.9338C21.9969 12.6488 22.0062 9.36369 21.9876 6.07862L21.9907 6.07551ZM17.015 20.6032C16.6758 20.681 16.3211 20.709 15.9726 20.709C12.6586 20.7152 9.34455 20.7183 6.03055 20.7121C3.75276 20.709 1.9075 19.2407 1.40028 17.0226C1.32249 16.6773 1.2976 16.3134 1.29448 15.9587C1.28826 12.6612 1.28826 9.36058 1.29137 6.06307C1.29137 3.78903 2.71344 1.96918 4.91966 1.43411C5.28996 1.34389 5.68515 1.31278 6.06789 1.30967C7.714 1.29723 9.36011 1.30345 11.0062 1.30345C12.6586 1.30345 14.314 1.28479 15.9663 1.30967C17.961 1.33767 19.411 2.26471 20.2885 4.06278C20.5842 4.6694 20.7055 5.32268 20.7055 5.99774C20.7055 9.3388 20.7149 12.683 20.7055 16.024C20.6993 18.2732 19.2181 20.1055 17.015 20.6094V20.6032Z" fill="#002D5D"/>
<path d="M17.009 11.0373C17.0432 7.74915 14.3515 5.03026 11.0282 4.99604C7.73908 4.96182 5.01942 7.65272 4.98519 10.9751C4.95096 14.2633 7.64261 16.9822 10.966 17.0164C14.2551 17.0506 16.9747 14.3597 17.009 11.0373ZM10.9815 15.7285C8.37698 15.7161 6.25478 13.5758 6.27345 10.9876C6.29212 8.38999 8.41121 6.28083 11.0002 6.28394C13.5985 6.28705 15.73 8.4211 15.7207 11.0156C15.7114 13.6162 13.5767 15.7441 10.9815 15.7285Z" fill="#002D5D"/>
<path d="M17.1615 6.40837C18.1292 6.40215 18.9414 5.58399 18.932 4.62585C18.9227 3.65526 18.1074 2.84644 17.149 2.85577C16.1781 2.8651 15.3753 3.67393 15.3784 4.63829C15.3847 5.60888 16.1937 6.41459 17.1615 6.40837ZM17.1615 4.14989C17.4166 4.14989 17.6407 4.37698 17.6407 4.63207C17.6407 4.88716 17.4197 5.11425 17.1615 5.11737C16.9001 5.12048 16.6636 4.88405 16.6698 4.62274C16.676 4.36765 16.9032 4.14678 17.1583 4.14989H17.1615Z" fill="#002D5D"/>
</g>
<defs>
<clipPath id="clip0_1937_2475">
<rect width="22" height="22" fill="white"/>
</clipPath>
</defs>
</svg>
