<svg width="23" height="22" viewBox="0 0 23 22" fill="none" xmlns="http://www.w3.org/2000/svg">
<path d="M22.9936 1.18803C22.7566 0.388866 22.1706 0 21.197 0C19.0226 0.00612387 15.9866 0.0091858 11.6409 0.0091858H2.39223C2.36341 0.0091858 2.33459 0.0091858 2.31857 0.0091858C2.23531 0.0091858 2.14884 0.0091858 2.06558 0.0091858H1.66527C0.605263 0.0091858 0 0.590953 0 1.60752V20.4537C0 20.5027 0 20.5517 0 20.6007C0.0160123 21.0324 0.188945 21.3846 0.499582 21.6203C0.650097 21.7336 0.82303 21.8102 1.00877 21.8928C1.07282 21.9204 1.13687 21.951 1.20092 21.9816L1.23935 22H21.7318L21.7607 21.9939C22.4075 21.8316 22.8207 21.4335 23 20.7875V1.21865L22.9936 1.18803ZM21.3027 20.815H20.912C20.8448 20.815 20.7807 20.815 20.7167 20.815H1.70691C1.28418 20.815 1.23935 20.7752 1.23935 20.3802V3.61615C1.23935 2.91802 1.23935 2.21684 1.23935 1.51872C1.23935 1.28295 1.32902 1.19722 1.57881 1.19415H2.06238C2.14564 1.19415 2.23211 1.19415 2.30256 1.19415C2.33459 1.19415 2.36661 1.19415 2.39864 1.19415H21.3155C21.7158 1.19415 21.7639 1.23702 21.7639 1.62589V20.4017C21.7639 20.7691 21.7126 20.815 21.3059 20.815H21.3027Z" fill="#002D5D"/>
<path d="M19.8487 11.4608C19.5797 9.3144 17.6647 7.69464 15.3877 7.69464C14.4974 7.69464 13.6328 7.95184 12.8866 8.44175C12.8162 8.03452 12.6112 7.90898 12.0796 7.90898H9.3383C8.80029 7.90898 8.58252 8.12025 8.58252 8.63772V18.2583C8.58252 18.7788 8.80669 18.9932 9.36071 18.9932H12.2557C12.8578 18.9932 13.0724 18.788 13.0724 18.2093V12.8816C13.0724 12.7652 13.0724 12.6642 13.0852 12.5631C13.13 12.1834 13.3286 11.8987 13.6776 11.715C13.857 11.62 14.0459 11.5741 14.238 11.5741C14.8817 11.5741 15.3877 12.0701 15.3909 12.7009C15.3941 13.99 15.3941 15.2821 15.3909 16.5712V18.2614C15.3909 18.7727 15.6183 18.9932 16.1499 18.9932H19.0673C19.6662 18.9932 19.8808 18.788 19.8808 18.2063V17.1376C19.8808 15.472 19.8808 13.8063 19.8808 12.1375C19.8808 11.9324 19.8808 11.6935 19.8487 11.4639V11.4608ZM16.6303 12.6978C16.6271 11.5864 15.8585 10.68 14.7248 10.4381C14.5615 10.4045 14.395 10.3861 14.2284 10.3861C12.9987 10.3861 11.9323 11.3292 11.849 12.4927C11.833 12.7376 11.833 12.9918 11.833 13.2122C11.833 13.2122 11.833 17.3275 11.833 17.7929H9.83468V9.10313H11.6729C11.6729 9.24092 11.6729 9.57467 11.6729 9.70939C11.6729 9.93598 11.7209 10.2514 12.102 10.3708C12.1725 10.3922 12.2365 10.4014 12.2974 10.4014C12.544 10.4014 12.7169 10.2391 12.8386 10.0983C13.5431 9.28685 14.379 8.87349 15.3237 8.87349C15.6119 8.87349 15.9161 8.91329 16.2236 8.98984C17.5494 9.32053 18.3532 10.1779 18.6126 11.5374C18.6446 11.7027 18.6446 11.8803 18.6446 12.0763C18.6446 13.5613 18.6446 15.0494 18.6446 16.5344V17.7929H16.6335V16.1793C16.6335 15.0188 16.6335 13.8583 16.6335 12.6978H16.6303Z" fill="#002D5D"/>
<path d="M7.13804 7.90898H4.13094C3.60894 7.90898 3.38477 8.12331 3.38477 8.62547C3.38477 11.8405 3.38477 15.0525 3.38477 18.2675C3.38477 18.7666 3.61534 18.9901 4.13094 18.9901H7.11562C7.64723 18.9901 7.8714 18.7697 7.8746 18.2583V8.61322C7.8746 8.12025 7.65363 7.90898 7.13804 7.90898ZM6.62244 9.10313V17.7868H4.63692V9.10313H6.62244Z" fill="#002D5D"/>
<path d="M5.6269 3.01907C4.95759 3.01907 4.32671 3.27321 3.85275 3.72943C3.37878 4.18873 3.11939 4.79193 3.12259 5.42881C3.1322 6.74238 4.25305 7.81712 5.6237 7.82324H5.63331C7.01356 7.82324 8.13762 6.74544 8.14083 5.42268C8.14083 4.78274 7.87823 4.1826 7.40426 3.72637C6.9271 3.27014 6.29622 3.01907 5.63011 3.01907H5.6269ZM4.72702 4.5684C4.9672 4.3357 5.28424 4.2071 5.6205 4.20403H5.63331C6.32824 4.20403 6.89828 4.746 6.90148 5.41044C6.90468 6.081 6.33465 6.62909 5.6269 6.63827C4.93517 6.63827 4.37154 6.09631 4.36514 5.42881C4.36194 5.10731 4.49003 4.80111 4.73022 4.5684H4.72702Z" fill="#002D5D"/>
</svg>
