<svg width="22" height="22" viewBox="0 0 22 22" fill="none" xmlns="http://www.w3.org/2000/svg">
<g clip-path="url(#clip0_1937_2465)">
<path d="M21.9998 2.36425V19.6357C21.9874 19.6606 21.9718 19.6855 21.9656 19.7135C21.695 21.1321 20.6528 21.9969 19.2032 22C17.6353 22 16.0674 22 14.4996 22C13.9427 22 13.7063 21.7605 13.7063 21.2005C13.7063 18.6745 13.7063 16.1454 13.7063 13.6193C13.7063 13.0625 13.9427 12.8261 14.5058 12.8261C15.1497 12.8261 15.7937 12.8261 16.4376 12.8261C16.5123 12.8261 16.59 12.8199 16.674 12.8167V10.9782C16.5838 10.9782 16.5061 10.9782 16.4283 10.9782C15.7626 10.9782 15.0968 10.9813 14.4311 10.9782C13.9552 10.9751 13.7032 10.72 13.7032 10.2441C13.7032 9.42902 13.7032 8.61086 13.7032 7.79581C13.7032 7.26697 13.9987 6.97144 14.5276 6.96833C15.1653 6.96833 15.803 6.96833 16.4407 6.96833C16.5185 6.96833 16.5932 6.96833 16.6678 6.96833V5.12047C15.9399 5.12047 15.2337 5.12047 14.5244 5.12047C12.9752 5.1267 11.8584 6.24039 11.8553 7.78959C11.8553 8.59219 11.8553 9.3948 11.8553 10.1943C11.8553 10.7387 11.6189 10.9751 11.0683 10.9751C10.4181 10.9751 9.76482 10.9751 9.11465 10.9751C9.03999 10.9751 8.96533 10.9844 8.89067 10.9876V12.8261C8.984 12.8261 9.06177 12.8261 9.13954 12.8261C9.78971 12.8261 10.443 12.8261 11.0932 12.8261C11.6127 12.8261 11.8553 13.0749 11.8553 13.5913C11.8553 16.1391 11.8553 18.69 11.8553 21.2378C11.8553 21.7542 11.6065 22 11.0901 22C8.31205 22 5.53406 22 2.75606 22C2.53519 22 2.3112 21.9813 2.09655 21.9316C0.824213 21.6329 0.00294638 20.5752 -0.000164479 19.2282C-0.000164479 14.366 -0.000164479 9.50368 -0.000164479 4.64451C-0.000164479 3.97879 -0.0063862 3.31307 -0.000164479 2.64734C0.0216115 1.49943 0.749553 0.50707 1.82902 0.1431C2.00634 0.0839932 2.18677 0.0466629 2.36409 0H19.6387C19.6698 0.0124434 19.704 0.0311086 19.7351 0.0373303C20.5813 0.177319 21.2315 0.619061 21.6452 1.36878C21.8132 1.67364 21.8847 2.03139 22.0029 2.36425H21.9998ZM15.016 20.7028C15.1062 20.7028 15.1715 20.7028 15.2368 20.7028C16.5558 20.7028 17.8717 20.7028 19.1907 20.7028C20.1271 20.7028 20.7057 20.1273 20.7057 19.1909C20.7057 13.7282 20.7057 8.26555 20.7057 2.79977C20.7057 1.87585 20.124 1.29723 19.2001 1.29723C13.7374 1.29723 8.27472 1.29723 2.80894 1.29723C2.64718 1.29723 2.47608 1.31278 2.32054 1.35322C1.66415 1.53054 1.29706 2.06561 1.29706 2.83399C1.29706 8.27489 1.29706 13.7189 1.29706 19.1598C1.29706 20.1273 1.86635 20.6997 2.82761 20.6997C5.32563 20.6997 7.82676 20.6997 10.3248 20.6997C10.3994 20.6997 10.4741 20.6934 10.5488 20.6903V14.1233C10.4554 14.1233 10.3777 14.1233 10.2999 14.1233C9.64039 14.1233 8.98089 14.1233 8.3245 14.1233C7.83609 14.1233 7.57478 13.8651 7.57167 13.386C7.56856 12.3906 7.56856 11.3951 7.57167 10.3996C7.57167 9.92986 7.8392 9.67477 8.31205 9.67166C8.97778 9.67166 9.6435 9.67166 10.3092 9.67166C10.387 9.67166 10.4617 9.67166 10.5612 9.67166C10.5612 9.57211 10.5612 9.49434 10.5612 9.41657C10.5612 8.80062 10.5519 8.18467 10.5674 7.56872C10.6234 5.51866 12.2784 3.86991 14.3316 3.82325C15.3053 3.80147 16.279 3.81702 17.2527 3.81702C17.738 3.81702 17.9899 4.07212 17.993 4.56052C17.993 5.54044 17.993 6.52347 17.993 7.50339C17.993 8.00735 17.7442 8.25311 17.2371 8.25311C16.5714 8.25311 15.9057 8.25311 15.2399 8.25311C15.1653 8.25311 15.0875 8.25933 15.0191 8.26244V9.66544C15.7594 9.66544 16.4812 9.66544 17.2029 9.66544C17.7442 9.66544 17.993 9.9112 17.993 10.4525C17.993 11.4106 17.993 12.3719 17.993 13.33C17.993 13.8713 17.7442 14.1171 17.2029 14.1171C16.5527 14.1171 15.8994 14.1171 15.2493 14.1171C15.1746 14.1171 15.0968 14.1233 15.0128 14.1264V20.6934L15.016 20.7028Z" fill="#002D5D"/>
</g>
<defs>
<clipPath id="clip0_1937_2465">
<rect width="22" height="22" fill="white"/>
</clipPath>
</defs>
</svg>
