<svg width="28" height="22" viewBox="0 0 28 22" fill="none" xmlns="http://www.w3.org/2000/svg">
<g clip-path="url(#clip0_1937_2467)">
<path d="M14.736 21.5C14.5578 21.5 14.3797 21.5 14.2046 21.5C11.529 21.4786 8.81037 21.3622 6.18086 21.249L4.80159 21.1908C3.76023 21.148 2.90625 20.9 2.19358 20.4347C1.32117 19.8653 0.768238 19.0296 0.454908 17.799C0.14465 16.5837 0.107788 15.3194 0.0709256 14.0949L0.0586381 13.6571C-0.0181584 11.3765 -0.0642363 8.37959 0.236806 5.38878C0.365824 4.09388 0.709872 3.13265 1.3181 2.36122C2.0277 1.4551 2.92776 0.946939 3.98755 0.842857C5.59106 0.686735 7.03483 0.597959 8.39874 0.573469C10.9791 0.52449 13.0772 0.5 14.9971 0.5C15.7589 0.5 16.5238 0.503061 17.2856 0.512245C19.4175 0.533673 21.5309 0.659184 23.5768 0.781633C24.9499 0.864286 26.0404 1.43367 26.8176 2.47755C27.2569 3.06837 27.5364 3.79388 27.6501 4.63265C27.7484 5.36735 27.8067 6.12041 27.8651 6.84898C27.8897 7.16429 27.9143 7.47653 27.9419 7.79184C27.9573 7.95408 27.9696 8.11939 27.9818 8.28163L27.9972 8.47143V13.5684L27.9634 14.0949C27.9388 14.4806 27.9143 14.8694 27.8897 15.2551C27.8344 16.1582 27.7699 16.9694 27.5579 17.7837C27.0572 19.7153 25.936 20.8051 24.1328 21.1143C23.3648 21.2459 22.5784 21.2735 21.8166 21.298C21.19 21.3194 20.5664 21.3439 19.9397 21.3684C18.2318 21.4357 16.4654 21.5031 14.7329 21.5031L14.736 21.5ZM14.6193 1.84694C13.8114 1.86531 13.0618 1.88367 12.3522 1.89898C10.7794 1.93265 9.42474 1.96327 8.06083 2.00918C6.61092 2.05816 5.4989 2.12245 4.45447 2.21429C3.21958 2.32449 2.39632 2.9551 2.00005 4.08163C1.69901 4.94184 1.613 5.82041 1.56692 6.64082C1.3949 9.65612 1.39797 12.5857 1.57614 15.3469C1.61914 16.0112 1.72359 16.7306 1.90175 17.6061C2.01234 18.151 2.24887 18.598 2.59907 18.9316C3.06292 19.3755 3.66193 19.6265 4.42989 19.7C5.29616 19.7827 6.31602 19.8714 7.34509 19.9112C9.87937 20.0122 12.1956 20.0612 14.4319 20.0612C16.6682 20.0612 18.671 20.0153 20.6493 19.9204H20.6923C21.7275 19.8684 22.7965 19.8194 23.841 19.7C24.867 19.5837 25.5797 19.0265 25.9606 18.05C26.323 17.1194 26.406 16.1582 26.4582 15.252C26.6026 12.7908 26.6179 10.2592 26.5043 7.72755C26.4981 7.56531 26.492 7.40306 26.4858 7.24082C26.4521 6.28878 26.4152 5.30612 26.1295 4.35714C25.9636 3.80306 25.7332 3.23673 25.2018 2.82959C24.6581 2.41327 23.9915 2.20204 23.1007 2.16837C20.8306 2.07653 18.5605 1.99082 16.5484 1.91735L14.6285 1.84694H14.6254H14.6193Z" fill="#002D5D"/>
<path d="M11.5254 15.0806C10.9325 15.0806 10.5332 14.6092 10.5332 13.9051C10.5332 13.1643 10.5332 12.4235 10.5332 11.6827V9.7051C10.5332 8.9551 10.5332 8.2051 10.5332 7.45816C10.5332 6.77857 10.9448 6.30102 11.5316 6.30102C11.7404 6.30102 11.9555 6.35918 12.1705 6.47857C13.261 7.06939 14.3485 7.66327 15.4359 8.25714C16.3513 8.75612 17.2636 9.2551 18.1791 9.75408C18.6122 9.9898 18.8242 10.3051 18.8272 10.7214C18.8272 11.1439 18.6122 11.4653 18.1637 11.7041C17.236 12.2 16.3114 12.6959 15.3837 13.1918C14.3147 13.7643 13.2457 14.3367 12.1766 14.9061C11.9555 15.0224 11.7374 15.0837 11.5254 15.0837V15.0806ZM11.98 13.3847L16.9595 10.7184L11.98 8.00306V13.3847Z" fill="#002D5D"/>
</g>
<defs>
<clipPath id="clip0_1937_2467">
<rect width="28" height="21" fill="white" transform="translate(0 0.5)"/>
</clipPath>
</defs>
</svg>
