<svg width="188" height="60" viewBox="0 0 188 60" fill="none" xmlns="http://www.w3.org/2000/svg">
<g clip-path="url(#clip0_1632_224)">
<path d="M92.5744 11.5635H80.9983V13.4585C80.9983 13.9491 81.1947 14.4195 81.5444 14.7663C81.894 15.1132 82.3682 15.3081 82.8627 15.3081H92.1694C92.722 15.3101 93.2514 15.5287 93.6422 15.9164C94.033 16.304 94.2534 16.8292 94.2554 17.3774V22.2855H85.4874C81.1779 22.2855 77.4643 25.5715 77.2542 29.8656C77.2025 30.9422 77.3717 32.0181 77.7517 33.0279C78.1317 34.0377 78.7144 34.9604 79.4647 35.7401C80.2149 36.5198 81.1169 37.1402 82.1161 37.5637C83.1153 37.9871 84.1907 38.2049 85.2772 38.2036H98.0224V16.9378C98.0209 16.2299 97.8787 15.5292 97.604 14.8759C97.3293 14.2225 96.9275 13.6294 96.4215 13.1302C95.9155 12.6311 95.3153 12.2358 94.6552 11.9669C93.995 11.6981 93.288 11.561 92.5744 11.5635ZM94.2554 34.4781H85.4148C84.3111 34.4916 83.2431 34.0905 82.4253 33.3551C81.6075 32.6197 81.1004 31.6046 81.0059 30.5137C80.9667 29.9344 81.0478 29.3534 81.2444 28.8065C81.4409 28.2597 81.7486 27.7587 82.1484 27.3348C82.5482 26.9108 83.0315 26.5728 83.5684 26.3419C84.1054 26.1109 84.6844 25.9919 85.2696 25.9922H94.2592L94.2554 34.4781Z" fill="white"/>
<path d="M149.182 38.1806H160.758V36.2856C160.758 35.7947 160.562 35.3239 160.213 34.9765C159.863 34.629 159.389 34.4333 158.894 34.4323H149.587C149.034 34.4313 148.504 34.213 148.113 33.8251C147.722 33.4372 147.502 32.9115 147.501 32.363V27.4549H156.288C160.598 27.4549 164.311 24.1651 164.518 19.8937C164.57 18.8171 164.4 17.7412 164.02 16.7314C163.64 15.7216 163.058 14.7989 162.307 14.0192C161.557 13.2395 160.655 12.6191 159.656 12.1957C158.657 11.7722 157.581 11.5544 156.495 11.5557H143.753V32.7798C143.751 33.4885 143.89 34.1907 144.161 34.8461C144.433 35.5015 144.833 36.0972 145.337 36.599C145.841 37.1008 146.441 37.4988 147.101 37.7703C147.761 38.0417 148.468 38.1811 149.182 38.1806ZM147.501 15.2661H156.33C157.432 15.2515 158.499 15.6509 159.316 16.3842C160.133 17.1174 160.64 18.1302 160.736 19.2191C160.775 19.7976 160.694 20.3778 160.498 20.9239C160.302 21.4701 159.995 21.9704 159.595 22.394C159.196 22.8175 158.714 23.1553 158.178 23.3863C157.642 23.6173 157.064 23.7366 156.479 23.7368H147.501V15.2661Z" fill="white"/>
<path d="M101.698 21.9366V38.0443H103.57C104.07 38.0443 104.55 37.847 104.904 37.4959C105.258 37.1448 105.457 36.6686 105.457 36.172V21.9366C105.456 21.0222 105.636 20.1165 105.988 19.2714C106.34 18.4263 106.856 17.6583 107.508 17.0116C108.16 16.3648 108.933 15.852 109.785 15.5024C110.637 15.1528 111.55 14.9734 112.472 14.9744C113.392 14.9744 114.304 15.1542 115.154 15.5037C116.005 15.8532 116.778 16.3655 117.429 17.0113C118.08 17.6571 118.596 18.4238 118.948 19.2676C119.301 20.1114 119.482 21.0157 119.482 21.9291V36.1985C119.482 36.6931 119.68 37.1674 120.033 37.5171C120.385 37.8668 120.863 38.0632 121.362 38.0632H123.241V21.9556C123.241 19.122 122.107 16.4044 120.087 14.4008C118.067 12.3971 115.328 11.2715 112.472 11.2715C109.618 11.2705 106.88 12.3931 104.86 14.3928C102.84 16.3924 101.703 19.1057 101.698 21.9366Z" fill="white"/>
<path d="M186.539 13.413V11.5635H174.6C172.557 11.5635 170.597 12.3684 169.152 13.8012C167.707 15.234 166.895 17.1774 166.894 19.2042C166.894 20.2079 167.093 21.2018 167.481 22.129C167.868 23.0563 168.436 23.8988 169.151 24.6083C169.867 25.3179 170.716 25.8806 171.651 26.2644C172.586 26.6481 173.588 26.8454 174.6 26.8449H180.281C181.316 26.8459 182.309 27.2543 183.041 27.9805C183.773 28.7067 184.185 29.6913 184.186 30.7183C184.185 31.7449 183.773 32.7292 183.041 33.4548C182.308 34.1804 181.316 34.5879 180.281 34.5879H170.18C169.681 34.5879 169.203 34.7844 168.851 35.1341C168.498 35.4838 168.3 35.9581 168.3 36.4526V38.3135H180.239C181.251 38.314 182.252 38.1167 183.187 37.7329C184.122 37.3491 184.971 36.7863 185.686 36.0767C186.402 35.3671 186.969 34.5246 187.356 33.5974C187.743 32.6701 187.942 31.6763 187.941 30.6728C187.941 28.6464 187.13 26.7029 185.685 25.27C184.241 23.8371 182.282 23.0321 180.239 23.0321H174.554C174.04 23.0321 173.531 22.9314 173.057 22.7357C172.582 22.5401 172.152 22.2534 171.789 21.892C171.427 21.5307 171.14 21.1019 170.945 20.6302C170.75 20.1585 170.651 19.6533 170.653 19.1435C170.654 18.1179 171.066 17.1346 171.797 16.4098C172.529 15.6849 173.52 15.2777 174.554 15.2777H184.659C185.158 15.2767 185.635 15.0799 185.987 14.7304C186.34 14.381 186.538 13.9073 186.539 13.413Z" fill="white"/>
<path d="M140.284 13.1628C140.285 12.9191 140.237 12.6777 140.143 12.4524C140.05 12.2271 139.912 12.0224 139.739 11.8499C139.565 11.6774 139.359 11.5405 139.132 11.4471C138.905 11.3537 138.662 11.3057 138.416 11.3057H133.919V5.47282C133.92 5.22912 133.872 4.98772 133.778 4.76242C133.685 4.53713 133.547 4.33237 133.374 4.15987C133.2 3.98737 132.994 3.85053 132.767 3.75715C132.54 3.66378 132.297 3.61572 132.051 3.61572H130.179V11.3057H125.698C125.201 11.3057 124.725 11.5014 124.374 11.8496C124.023 12.1979 123.826 12.6703 123.826 13.1628C123.826 13.6553 124.023 14.1277 124.374 14.476C124.725 14.8243 125.201 15.0199 125.698 15.0199H130.179V35.6907C130.179 36.3552 130.445 36.9924 130.919 37.4622C131.392 37.932 132.035 38.196 132.704 38.196H140.284V36.3199C140.284 36.079 140.237 35.8405 140.144 35.6179C140.051 35.3954 139.914 35.1931 139.743 35.0228C139.571 34.8525 139.367 34.7174 139.143 34.6252C138.919 34.533 138.678 34.4855 138.435 34.4855H134.47C134.324 34.4855 134.184 34.428 134.081 34.3257C133.977 34.2233 133.919 34.0845 133.919 33.9398V15.0199H138.405C138.651 15.0209 138.895 14.9736 139.123 14.8807C139.351 14.7878 139.559 14.6512 139.733 14.4787C139.908 14.3061 140.047 14.1011 140.141 13.8753C140.236 13.6494 140.284 13.4073 140.284 13.1628Z" fill="white"/>
<path d="M79.9511 44.6543C80.2643 44.0886 80.7282 43.6192 81.2921 43.2974C81.8727 42.9666 82.5328 42.7977 83.2023 42.8085C83.9545 42.7922 84.6948 42.9966 85.3303 43.396C85.9433 43.7899 86.41 44.3714 86.6599 45.0522H85.4908C85.3043 44.6271 84.9927 44.2677 84.5968 44.0213C84.1765 43.7709 83.6924 43.6459 83.2023 43.6613C82.7105 43.6511 82.2253 43.7757 81.8002 44.0213C81.3832 44.2626 81.0449 44.6178 80.826 45.0447C80.5921 45.5291 80.4707 46.0595 80.4707 46.5967C80.4707 47.1338 80.5921 47.6642 80.826 48.1487C81.046 48.5748 81.384 48.9297 81.8002 49.172C82.2263 49.4151 82.7108 49.5395 83.2023 49.532C83.6918 49.5466 84.1753 49.4231 84.5968 49.1758C84.9926 48.9326 85.3045 48.5757 85.4908 48.1525H86.6599C86.4074 48.8278 85.9409 49.4037 85.3303 49.7936C84.6939 50.1903 83.9537 50.392 83.2023 50.3734C82.5334 50.3836 81.8738 50.2161 81.2921 49.8883C80.7297 49.5712 80.2659 49.1072 79.9511 48.5466C79.6277 47.9481 79.4585 47.2795 79.4585 46.6005C79.4585 45.9214 79.6277 45.2528 79.9511 44.6543Z" fill="#52B5E5"/>
<path d="M89.5791 50.032C89.1346 49.7859 88.7701 49.4191 88.5285 48.9746C88.2669 48.4862 88.1354 47.9396 88.1464 47.3866C88.1332 46.837 88.2649 46.2935 88.5285 45.8099C88.7754 45.3662 89.1453 45.0019 89.5944 44.7601C90.0602 44.5187 90.5779 44.3926 91.1035 44.3926C91.629 44.3926 92.1468 44.5187 92.6126 44.7601C93.0611 45.0008 93.431 45.3638 93.6785 45.8061C93.9439 46.2904 94.0757 46.8356 94.0605 47.3866C94.0729 47.9421 93.9343 48.4906 93.6594 48.9746C93.4043 49.4206 93.0284 49.7869 92.5744 50.032C92.1058 50.2853 91.5798 50.4157 91.0462 50.411C90.5326 50.4104 90.0277 50.28 89.5791 50.032ZM92.0586 49.3081C92.3712 49.1398 92.6284 48.8859 92.7998 48.5766C93.0002 48.2123 93.0991 47.8015 93.0863 47.3866C93.0977 46.9727 93.0017 46.5629 92.8074 46.1965C92.6402 45.8891 92.3867 45.6364 92.0777 45.4688C91.7766 45.3121 91.4416 45.2303 91.1016 45.2303C90.7615 45.2303 90.4265 45.3121 90.1254 45.4688C89.8203 45.6352 89.5727 45.8887 89.4148 46.1965C89.2262 46.5646 89.1343 46.9739 89.1474 47.3866C89.1329 47.8022 89.2221 48.2149 89.4072 48.588C89.5634 48.8945 89.8081 49.1478 90.1101 49.3157C90.405 49.4761 90.7366 49.5583 91.0729 49.5545C91.417 49.5547 91.7557 49.4701 92.0586 49.3081Z" fill="#52B5E5"/>
<path d="M96.7691 42.4482V50.3088H95.7949V42.4482H96.7691Z" fill="#52B5E5"/>
<path d="M98.8552 45.8103C99.0836 45.3755 99.4304 45.0131 99.8562 44.7642C100.289 44.5121 100.783 44.3811 101.285 44.3852C101.73 44.3831 102.169 44.4912 102.561 44.6998C102.93 44.8883 103.24 45.1725 103.459 45.5222V42.4409H104.445V50.3015H103.459V49.2061C103.258 49.5638 102.962 49.86 102.603 50.0627C102.199 50.2923 101.739 50.4076 101.274 50.3962C100.774 50.4021 100.282 50.2689 99.8546 50.0117C99.4271 49.7544 99.0809 49.3834 98.8552 48.9408C98.6074 48.4535 98.4829 47.9137 98.4923 47.368C98.4823 46.827 98.6069 46.292 98.8552 45.8103ZM103.191 46.2423C103.027 45.9276 102.777 45.665 102.469 45.4843C102.164 45.314 101.82 45.2245 101.47 45.2245C101.12 45.2245 100.776 45.314 100.471 45.4843C100.164 45.6626 99.9156 45.9261 99.7568 46.2423C99.5711 46.5925 99.4777 46.9837 99.4856 47.3793C99.4762 47.7836 99.5695 48.1837 99.7568 48.5429C99.9181 48.8574 100.166 49.1202 100.471 49.3009C100.774 49.4755 101.118 49.5658 101.468 49.5624C101.82 49.5652 102.165 49.4749 102.469 49.3009C102.777 49.1202 103.027 48.8576 103.191 48.5429C103.374 48.1917 103.466 47.801 103.459 47.4059C103.473 47.0016 103.381 46.6006 103.191 46.2423Z" fill="#52B5E5"/>
<path d="M113.736 50.3087L111.96 47.2767H110.783V50.3087H109.809V42.9068H112.216C112.707 42.8918 113.196 42.9891 113.644 43.191C114.004 43.3544 114.308 43.6177 114.519 43.949C114.731 44.3321 114.829 44.7671 114.802 45.2033C114.774 45.6395 114.622 46.0589 114.363 46.4125C114.027 46.8195 113.553 47.0894 113.029 47.1706L114.905 50.2746L113.736 50.3087ZM110.783 46.5187H112.216C112.429 46.5368 112.644 46.5126 112.848 46.4475C113.052 46.3825 113.241 46.2778 113.404 46.1397C113.535 46.0022 113.637 45.8395 113.703 45.6616C113.768 45.4836 113.797 45.2942 113.786 45.105C113.798 44.9179 113.771 44.7303 113.705 44.5546C113.639 44.3789 113.536 44.219 113.404 44.0855C113.067 43.8144 112.64 43.6791 112.208 43.7065H110.775L110.783 46.5187Z" fill="#52B5E5"/>
<path d="M117.809 50.032C117.364 49.7874 117 49.4201 116.762 48.9746C116.499 48.4869 116.367 47.9398 116.38 47.3866C116.367 46.837 116.498 46.2935 116.762 45.8099C117.011 45.3679 117.38 45.0042 117.828 44.7601C118.294 44.5187 118.811 44.3926 119.337 44.3926C119.862 44.3926 120.38 44.5187 120.846 44.7601C121.295 45.0008 121.664 45.3638 121.912 45.8061C122.173 46.2941 122.309 46.838 122.309 47.3904C122.309 47.9427 122.173 48.4867 121.912 48.9746C121.655 49.4208 121.278 49.787 120.823 50.032C120.355 50.2857 119.828 50.4162 119.295 50.411C118.775 50.4137 118.263 50.2831 117.809 50.032ZM120.288 49.3082C120.607 49.1409 120.872 48.8872 121.052 48.5767C121.237 48.2067 121.333 47.7995 121.333 47.3866C121.333 46.9737 121.237 46.5664 121.052 46.1965C120.886 45.8894 120.634 45.6366 120.326 45.4688C120.025 45.3121 119.689 45.2303 119.348 45.2303C119.008 45.2303 118.672 45.3121 118.37 45.4688C118.067 45.6374 117.82 45.8903 117.66 46.1965C117.471 46.5646 117.379 46.9739 117.392 47.3866C117.38 47.802 117.469 48.2143 117.652 48.588C117.808 48.8945 118.053 49.1478 118.355 49.3157C118.65 49.4751 118.982 49.5573 119.318 49.5545C119.657 49.5532 119.99 49.4685 120.288 49.3082Z" fill="#52B5E5"/>
<path d="M125.09 50.032C124.645 49.7875 124.28 49.4203 124.04 48.9746C123.778 48.4862 123.647 47.9396 123.658 47.3866C123.644 46.837 123.776 46.2935 124.04 45.8099C124.287 45.3662 124.657 45.0019 125.106 44.7601C125.571 44.5187 126.089 44.3926 126.615 44.3926C127.14 44.3926 127.658 44.5187 128.124 44.7601C128.572 45.0008 128.942 45.3638 129.19 45.8061C129.455 46.2904 129.587 46.8356 129.572 47.3866C129.59 47.9403 129.458 48.4887 129.19 48.9746C128.935 49.4206 128.559 49.7869 128.105 50.032C127.636 50.2849 127.11 50.4154 126.577 50.411C126.056 50.4136 125.545 50.2831 125.09 50.032ZM127.566 49.3081C127.88 49.1409 128.139 48.8868 128.311 48.5766C128.511 48.2123 128.61 47.8015 128.598 47.3866C128.609 46.9727 128.513 46.5629 128.319 46.1965C128.151 45.8891 127.898 45.6364 127.589 45.4688C127.288 45.3121 126.953 45.2303 126.613 45.2303C126.273 45.2303 125.938 45.3121 125.637 45.4688C125.331 45.636 125.083 45.8893 124.922 46.1965C124.735 46.5652 124.643 46.9741 124.655 47.3866C124.642 47.8025 124.732 48.2152 124.918 48.588C125.075 48.8945 125.319 49.1478 125.621 49.3157C125.916 49.4761 126.248 49.5583 126.584 49.5545C126.927 49.5552 127.265 49.4705 127.566 49.3081Z" fill="#52B5E5"/>
<path d="M139.581 44.6618C139.941 44.8544 140.235 45.1485 140.426 45.507C140.643 45.9313 140.75 46.4031 140.735 46.879V50.309H139.772V47.0154C139.804 46.5318 139.649 46.0544 139.337 45.6814C139.186 45.5264 139.004 45.405 138.802 45.3252C138.601 45.2455 138.384 45.2093 138.168 45.219C137.942 45.2086 137.718 45.2466 137.509 45.3303C137.3 45.414 137.111 45.5415 136.957 45.7041C136.632 46.0947 136.471 46.5938 136.506 47.0988V50.309H135.543V47.0154C135.576 46.5324 135.422 46.055 135.111 45.6814C134.96 45.5259 134.777 45.4042 134.575 45.3244C134.373 45.2447 134.156 45.2087 133.938 45.219C133.713 45.2089 133.489 45.247 133.28 45.3307C133.071 45.4144 132.882 45.5418 132.727 45.7041C132.404 46.0954 132.243 46.594 132.276 47.0988V50.309H131.302V44.4875H132.261V45.3251C132.448 45.0284 132.712 44.7873 133.025 44.6277C133.358 44.4619 133.726 44.3775 134.099 44.3814C134.556 44.3724 135.008 44.4863 135.405 44.7111C135.786 44.9328 136.083 45.2723 136.25 45.6776C136.406 45.2779 136.692 44.9417 137.064 44.7225C137.445 44.4946 137.883 44.3765 138.328 44.3814C138.763 44.3693 139.194 44.4658 139.581 44.6618Z" fill="#52B5E5"/>
<path d="M147.02 43.6914V46.1663H149.74V46.9622H147.02V49.5129H150.077V50.3088H146.046V42.8955H150.061V43.6914H147.02Z" fill="#52B5E5"/>
<path d="M155.028 50.3088L153.656 48.1409L152.319 50.3088H151.299L153.209 47.4208L151.299 44.4873H152.403L153.794 46.6438L155.123 44.4873H156.139L154.256 47.3677L156.166 50.3088H155.028Z" fill="#52B5E5"/>
<path d="M159.356 44.7263C159.762 44.4974 160.223 44.3822 160.69 44.3928C161.189 44.3896 161.68 44.5206 162.111 44.7718C162.537 45.0206 162.883 45.3831 163.112 45.8178C163.368 46.3001 163.499 46.838 163.494 47.3831C163.497 47.9304 163.366 48.4703 163.112 48.956C162.886 49.3991 162.539 49.7705 162.111 50.0278C161.683 50.2851 161.19 50.418 160.69 50.4113C160.227 50.421 159.77 50.3057 159.368 50.0778C159.01 49.8784 158.71 49.5913 158.497 49.244V53.0757H157.522V44.4875H158.497V45.5601C158.705 45.2124 159.001 44.9249 159.356 44.7263ZM162.21 46.2423C162.05 45.9247 161.799 45.6611 161.488 45.4843C161.183 45.3126 160.838 45.2237 160.487 45.2266C160.134 45.2216 159.786 45.3139 159.483 45.4932C159.179 45.6726 158.932 45.9319 158.768 46.2423C158.583 46.5928 158.49 46.9837 158.497 47.3793C158.491 47.7748 158.584 48.1655 158.768 48.5163C158.895 48.7451 159.066 48.9466 159.272 49.1089C159.478 49.2712 159.714 49.3912 159.968 49.4618C160.221 49.5324 160.486 49.5522 160.747 49.52C161.008 49.4878 161.26 49.4043 161.488 49.2743C161.797 49.0951 162.047 48.8321 162.21 48.5163C162.396 48.1569 162.488 47.7567 162.478 47.3528C162.484 46.9626 162.392 46.5769 162.21 46.2309V46.2423Z" fill="#52B5E5"/>
<path d="M170.508 47.7581H165.821C165.82 48.004 165.869 48.2475 165.966 48.4739C166.063 48.7004 166.205 48.9051 166.383 49.0757C166.561 49.2464 166.773 49.3795 167.004 49.467C167.236 49.5545 167.483 49.5946 167.731 49.5849C168.105 49.6004 168.474 49.4982 168.785 49.293C169.064 49.1039 169.273 48.8298 169.381 48.5123H170.432C170.281 49.0596 169.949 49.5404 169.488 49.8767C168.978 50.2408 168.359 50.4261 167.731 50.4035C167.209 50.4094 166.695 50.2787 166.241 50.0245C165.8 49.7783 165.441 49.4111 165.206 48.9671C164.946 48.4781 164.814 47.9319 164.824 47.3791C164.812 46.8306 164.936 46.2878 165.186 45.7986C165.417 45.3577 165.773 44.9939 166.21 44.7526C166.677 44.4944 167.204 44.3637 167.739 44.3736C168.256 44.3697 168.766 44.5003 169.217 44.7526C169.635 44.9835 169.979 45.328 170.207 45.7456C170.444 46.1846 170.563 46.6765 170.554 47.1744C170.55 47.3697 170.535 47.5645 170.508 47.7581ZM169.29 46.0222C169.128 45.7607 168.895 45.5504 168.617 45.4158C168.325 45.2766 168.005 45.2065 167.681 45.2112C167.218 45.2008 166.767 45.3677 166.424 45.6773C166.063 46.0161 165.849 46.481 165.828 46.9735H169.534C169.542 46.6402 169.458 46.3111 169.29 46.0222Z" fill="#52B5E5"/>
<path d="M173.962 44.6579C174.312 44.4658 174.708 44.3703 175.108 44.3812V45.3818H174.848C173.758 45.3818 173.213 45.9692 173.213 47.1441V50.3088H172.239V44.4873H173.213V45.4348C173.381 45.1088 173.641 44.8387 173.962 44.6579Z" fill="#52B5E5"/>
<path d="M177.863 45.2945V48.7056C177.852 48.813 177.862 48.9216 177.894 49.025C177.925 49.1285 177.977 49.2247 178.046 49.3082C178.226 49.4436 178.452 49.5059 178.677 49.4825H179.395V50.3012H178.516C178.076 50.3324 177.641 50.197 177.297 49.9222C177.148 49.7573 177.034 49.5634 176.963 49.3526C176.893 49.1419 176.868 48.919 176.889 48.698V45.2869H176.125V44.491H176.889V43.0205H177.863V44.4872H179.391V45.2945H177.863Z" fill="#52B5E5"/>
<path d="M181.866 50.1764C181.533 50.042 181.242 49.8223 181.022 49.5396C180.815 49.2679 180.695 48.9402 180.678 48.5997H181.683C181.697 48.7403 181.74 48.8763 181.812 48.9986C181.883 49.1209 181.98 49.2266 182.096 49.3085C182.379 49.5047 182.721 49.602 183.066 49.5851C183.378 49.6028 183.687 49.5175 183.945 49.3426C184.044 49.2724 184.125 49.1798 184.181 49.0723C184.237 48.9648 184.266 48.8457 184.266 48.7248C184.27 48.6072 184.239 48.491 184.178 48.3902C184.117 48.2893 184.028 48.2081 183.922 48.1563C183.585 47.9894 183.23 47.8622 182.864 47.7773C182.501 47.6861 182.145 47.5709 181.798 47.4324C181.524 47.3161 181.281 47.1368 181.091 46.9094C180.884 46.6536 180.779 46.3311 180.797 46.0035C180.794 45.7092 180.888 45.422 181.064 45.1849C181.262 44.9242 181.525 44.7202 181.828 44.5937C182.183 44.4444 182.566 44.3708 182.951 44.3776C183.518 44.3513 184.075 44.5244 184.525 44.8665C184.725 45.0293 184.885 45.2334 184.996 45.4646C185.107 45.6958 185.166 45.9484 185.167 46.2044H184.193C184.186 46.0624 184.149 45.9234 184.083 45.7972C184.017 45.6709 183.924 45.5603 183.811 45.4729C183.554 45.2763 183.234 45.1781 182.909 45.1963C182.613 45.1794 182.32 45.2579 182.073 45.4199C181.976 45.4835 181.897 45.5704 181.843 45.6724C181.789 45.7744 181.761 45.8883 181.763 46.0035C181.76 46.0905 181.775 46.1771 181.807 46.258C181.839 46.3389 181.888 46.4123 181.95 46.4735C182.085 46.6036 182.245 46.7054 182.42 46.7729C182.611 46.8449 182.871 46.9283 183.207 47.0231C183.557 47.1126 183.9 47.224 184.235 47.3566C184.498 47.4645 184.731 47.6335 184.915 47.8493C185.111 48.0932 185.215 48.3976 185.209 48.7096C185.214 49.0172 185.12 49.3182 184.942 49.57C184.747 49.8362 184.483 50.0445 184.178 50.1726C183.824 50.3218 183.443 50.3954 183.058 50.3886C182.651 50.3974 182.245 50.3253 181.866 50.1764Z" fill="#52B5E5"/>
<path d="M64.6732 37.6502L55.504 53.394C54.3391 55.4026 52.6608 57.0709 50.6385 58.2307C48.6161 59.3905 46.3212 60.0008 43.9853 60H25.6469C22.3604 59.9985 19.1908 58.7902 16.749 56.6079C17.41 56.9147 18.0948 57.1682 18.7968 57.3659C18.9878 57.4266 19.1789 57.4721 19.3584 57.5213C19.538 57.5706 19.7634 57.6161 19.9659 57.6502C20.1684 57.6843 20.4396 57.7336 20.6918 57.7677H20.7376C20.9057 57.7942 21.0853 57.8169 21.2648 57.8283L21.7157 57.8624C21.9793 57.8624 22.2276 57.889 22.4798 57.889H40.799C43.1345 57.8875 45.4285 57.2762 47.4504 56.1166C49.4723 54.9571 51.151 53.29 52.3178 51.2829L61.4869 35.5278C62.2256 34.2641 62.7424 32.8851 63.0151 31.4497C63.0495 31.2374 63.0953 31.0366 63.1221 30.8243C63.1488 30.6121 63.1679 30.4719 63.1909 30.2937C63.3232 28.9846 63.264 27.6634 63.0151 26.371C62.8417 25.5247 62.5858 24.6971 62.251 23.8999C62.0256 23.3658 61.7705 22.8446 61.4869 22.3384L52.3178 6.59845C51.9611 5.99784 51.5642 5.4217 51.1296 4.87397C50.9004 4.60109 50.6749 4.35094 50.4381 4.11596C50.2086 3.86745 49.9663 3.63089 49.7122 3.40723C52.1401 4.55156 54.159 6.40237 55.5002 8.71327L64.6694 24.4419C65.8385 26.4495 66.4544 28.727 66.4551 31.0456C66.4558 33.3641 65.8412 35.6419 64.6732 37.6502Z" fill="#002D5D"/>
<path d="M35.011 18.0935L33.5095 17.7373C33.2 17.9268 32.5926 18.2224 32.0806 17.9381C31.2592 17.5023 31.3165 16.8883 31.3547 16.6761L30.3652 15.8574L35.011 18.0935Z" fill="#3CB4E5"/>
<path d="M63.2062 30.3014L63.1374 30.8321C63.1107 31.0443 63.0648 31.2452 63.0304 31.4574C57.7391 29.6723 50.9386 28.7058 47.2098 23.9418C44.566 20.561 41.9184 20.4208 41.586 20.3488C43.374 19.1701 44.7914 17.4798 43.5383 15.8576C42.1935 14.1445 38.5373 14.0384 35.5955 15.7894C34.8544 15.3763 34.1285 14.9139 33.3682 14.5728C30.3118 13.1894 27.2554 11.8288 24.199 10.5781C24.1936 10.5757 24.1878 10.5745 24.1818 10.5745C24.1759 10.5745 24.17 10.5757 24.1646 10.5781C24.3595 10.7289 24.5167 10.9223 24.624 11.1431C24.7314 11.364 24.7859 11.6064 24.7835 11.8516C24.7829 12.1271 24.7126 12.3981 24.5791 12.6398C24.4456 12.8814 24.2532 13.086 24.0195 13.2349C23.9812 13.2349 23.9354 13.2842 23.8857 13.2956C22.4583 13.9839 21.3411 15.176 20.7529 16.6384C20.814 18.4536 21.4518 20.2033 22.5753 21.6374C23.4235 22.6911 24.3518 23.6954 25.1847 24.7339C30.8276 31.8591 35.2211 39.6098 35.9852 48.8423C36.161 50.9116 36.1877 55.202 36.161 57.8967H22.4913C22.2276 57.8967 21.9793 57.8967 21.7272 57.8701L21.2763 57.836C21.0968 57.836 20.9172 57.8019 20.7491 57.7754H20.7033C20.4511 57.7413 20.2143 57.7072 19.9774 57.6579C19.7405 57.6086 19.5724 57.5745 19.3699 57.5291C19.1674 57.4836 18.9879 57.4343 18.8083 57.3736C18.1063 57.1759 17.4215 56.9224 16.7605 56.6156C14.3381 55.4663 12.3229 53.6165 10.9801 51.3096L1.81097 35.5772C0.634143 33.5713 0.0141602 31.292 0.0141602 28.9711C0.0141602 26.6503 0.634143 24.3709 1.81097 22.3651L10.9801 6.61374C12.1454 4.60539 13.8246 2.9379 15.8479 1.77992C17.8712 0.62193 20.1668 0.0144968 22.5027 0.0190686H40.822C44.1135 0.0186844 47.2871 1.23477 49.7237 3.4301C49.9778 3.65376 50.2201 3.89032 50.4496 4.13883C50.6864 4.38519 50.9119 4.63533 51.1411 4.89684C51.5895 5.43772 51.9921 6.01453 52.3445 6.62132L61.5137 22.3613C61.8018 22.8651 62.057 23.3866 62.2778 23.9228C62.6126 24.72 62.8685 25.5476 63.0419 26.3939C63.2855 27.6818 63.3409 28.9979 63.2062 30.3014Z" fill="#3CB4E5"/>
<path d="M24.7643 11.84C24.7636 12.1156 24.6933 12.3866 24.5598 12.6282C24.4264 12.8699 24.234 13.0745 24.0002 13.2234C23.962 13.2234 23.9162 13.2726 23.8665 13.284C22.439 13.9724 21.3219 15.1644 20.7337 16.6268C20.6634 15.1742 20.9629 13.7274 21.6048 12.4199C21.8309 11.9526 22.1104 11.5126 22.4376 11.1085C22.5782 10.9609 22.7488 10.8447 22.9381 10.7675C23.3079 10.5644 23.7368 10.4935 24.153 10.5666C24.3465 10.7182 24.5022 10.9118 24.6082 11.1326C24.7142 11.3535 24.7676 11.5955 24.7643 11.84Z" fill="white"/>
<path d="M35.011 18.0935L33.5095 17.7373C33.2 17.9268 32.5926 18.2224 32.0806 17.9381C31.2592 17.5023 31.3165 16.8883 31.3547 16.6761L30.3652 15.8574L35.011 18.0935Z" fill="white"/>
<path d="M35.007 18.0935L33.5056 17.7373L32.2563 17.4417L31.3508 16.6761L30.3613 15.8574L35.007 18.0935Z" fill="#002D5D"/>
<path d="M33.7121 17.5856C33.649 17.6416 33.5813 17.6923 33.5096 17.7372C33.2002 17.9267 32.5927 18.2224 32.0808 17.9381C31.2594 17.5022 31.3167 16.8883 31.3549 16.676C31.3599 16.6513 31.3676 16.6271 31.3778 16.604L33.7121 17.5856Z" fill="#002D5D"/>
<path d="M24.7645 11.8403C24.7639 12.1158 24.6936 12.3868 24.5601 12.6285C24.4266 12.8702 24.2342 13.0748 24.0004 13.2237C23.9622 13.2237 23.9164 13.2729 23.8667 13.2843C23.64 13.404 23.3861 13.464 23.1294 13.4586C22.7983 13.4607 22.4745 13.3624 22.2014 13.1768C21.9282 12.9912 21.7188 12.7272 21.6012 12.4202C21.5287 12.2354 21.4924 12.0386 21.4942 11.8403C21.494 11.5226 21.584 11.2113 21.754 10.9421L21.838 10.8246C21.838 10.8246 21.861 10.8246 21.861 10.8018C21.8869 10.7837 21.9111 10.7634 21.9336 10.7412C22.0817 10.5725 22.265 10.4376 22.4708 10.346C22.6766 10.2544 22.9 10.2082 23.1255 10.2106C23.4985 10.2059 23.8612 10.332 24.1494 10.5668C24.3436 10.7181 24.5001 10.9116 24.6067 11.1324C24.7134 11.3532 24.7674 11.5954 24.7645 11.8403Z" fill="#002D5D"/>
<path d="M47.2098 23.9415C44.566 20.5608 41.9184 20.4206 41.586 20.3486C43.374 19.1699 44.7914 17.4795 43.5383 15.8574C42.1935 14.1443 38.5373 14.0382 35.5955 15.7892C34.8543 15.3761 34.1284 14.9137 33.3682 14.5726C30.3118 13.1892 27.2554 11.8286 24.199 10.5779C24.1936 10.5755 24.1877 10.5742 24.1818 10.5742C24.1759 10.5742 24.17 10.5755 24.1646 10.5779C24.3595 10.7287 24.5167 10.922 24.624 11.1429C24.7313 11.3637 24.7859 11.6062 24.7835 11.8513C24.7829 12.1269 24.7126 12.3979 24.5791 12.6395C24.4456 12.8812 24.2532 13.0858 24.0194 13.2347C23.9812 13.2347 23.9354 13.284 23.8857 13.2953C22.4583 13.9837 21.3411 15.1757 20.7529 16.6381C20.814 18.4534 21.4518 20.2031 22.5753 21.6372C23.4234 22.6908 24.3518 23.6952 25.1847 24.7336C30.8276 31.8589 35.2211 39.6095 35.9852 48.842C36.1609 50.9114 36.1877 55.2017 36.1609 57.8964H40.7837C43.1192 57.8949 45.4132 57.2837 47.4351 56.1241C49.4571 54.9645 51.1358 53.2975 52.3025 51.2904L61.4717 35.5352C62.2104 34.2716 62.7271 32.8926 62.9999 31.4572C57.7391 29.672 50.9386 28.7056 47.2098 23.9415ZM33.5095 17.7372C33.2001 17.9267 32.5926 18.2224 32.0807 17.9381C31.2593 17.5023 31.3166 16.8883 31.3548 16.676L30.3653 15.8574L35.011 18.0935L33.5095 17.7372Z" fill="white"/>
<path d="M23.9928 13.2233C23.9546 13.2233 23.9088 13.2726 23.8591 13.2839C22.4316 13.9723 21.3145 15.1643 20.7263 16.6268C20.7304 16.6378 20.7304 16.6499 20.7263 16.6609C20.5735 14.8303 20.9402 12.1128 21.7616 10.9417L21.8457 10.8242C21.8457 10.8242 21.8686 10.8242 21.8686 10.8015C21.8945 10.7833 21.9188 10.7631 21.9412 10.7408C22.2719 10.6669 22.6159 10.676 22.9422 10.7674L23.2287 10.8242C23.2287 10.8242 25.1237 12.4691 23.9928 13.2233Z" fill="#002D5D"/>
</g>
<defs>
<clipPath id="clip0_1632_224">
<rect width="187.941" height="60" fill="white"/>
</clipPath>
</defs>
</svg>
