<svg width="22" height="22" viewBox="0 0 22 22" fill="none" xmlns="http://www.w3.org/2000/svg">
<g clip-path="url(#clip0_1924_2330)">
<path d="M21.9907 6.07547C21.9782 3.7361 20.9451 1.95669 18.9287 0.768342C18.0294 0.239496 17.0337 0.012403 15.9912 0.012403C12.6617 0.012403 9.33211 -0.0187056 6.00566 0.0217356C3.43536 0.0528442 1.59321 1.29097 0.491655 3.60856C0.236492 4.14674 0.102687 4.72847 0.0373409 5.32264C0.0280057 5.40041 0.012447 5.47507 0 5.54973V16.4595C0.0591231 16.7955 0.0902404 17.1408 0.180481 17.4674C0.852617 19.8659 2.41471 21.3405 4.84498 21.8911C5.07525 21.944 5.30863 21.9657 5.54201 22H16.4518C16.7878 21.9409 17.1332 21.9097 17.4631 21.8195C19.856 21.1476 21.3341 19.5922 21.8755 17.1688C21.9658 16.7675 21.9876 16.3444 21.9876 15.9338C21.9969 12.6487 22.0062 9.36365 21.9876 6.07858L21.9907 6.07547ZM17.015 20.6032C16.6758 20.681 16.3211 20.709 15.9726 20.709C12.6586 20.7152 9.34455 20.7183 6.03055 20.7121C3.75276 20.709 1.9075 19.2406 1.40028 17.0226C1.32249 16.6773 1.2976 16.3133 1.29448 15.9587C1.28826 12.6612 1.28826 9.36054 1.29137 6.06303C1.29137 3.78899 2.71344 1.96913 4.91966 1.43407C5.28996 1.34385 5.68515 1.31274 6.06789 1.30963C7.714 1.29719 9.36011 1.30341 11.0062 1.30341C12.6586 1.30341 14.314 1.28474 15.9663 1.30963C17.961 1.33763 19.411 2.26467 20.2885 4.06274C20.5842 4.66936 20.7055 5.32264 20.7055 5.9977C20.7055 9.33876 20.7149 12.6829 20.7055 16.024C20.6993 18.2732 19.2181 20.1054 17.015 20.6094V20.6032Z" fill="white"/>
<path d="M17.0088 11.0373C17.043 7.74916 14.3513 5.03027 11.028 4.99605C7.73889 4.96183 5.01923 7.65272 4.985 10.9751C4.95077 14.2633 7.64243 16.9822 10.9658 17.0164C14.2549 17.0506 16.9745 14.3597 17.0088 11.0373ZM10.9813 15.7285C8.3768 15.7161 6.25459 13.5758 6.27326 10.9876C6.29193 8.39 8.41103 6.28084 11 6.28395C13.5983 6.28706 15.7298 8.42111 15.7205 11.0156C15.7112 13.6162 13.5765 15.7441 10.9813 15.7285Z" fill="white"/>
<path d="M17.1613 6.40839C18.129 6.40217 18.9412 5.58402 18.9319 4.62587C18.9225 3.65528 18.1072 2.84646 17.1488 2.85579C16.178 2.86513 15.3751 3.67395 15.3782 4.63832C15.3845 5.6089 16.1935 6.41462 17.1613 6.40839ZM17.1613 4.14991C17.4164 4.14991 17.6405 4.377 17.6405 4.63209C17.6405 4.88718 17.4195 5.11428 17.1613 5.11739C16.8999 5.1205 16.6634 4.88407 16.6696 4.62276C16.6758 4.36767 16.903 4.1468 17.1582 4.14991H17.1613Z" fill="white"/>
</g>
<defs>
<clipPath id="clip0_1924_2330">
<rect width="22" height="22" fill="white"/>
</clipPath>
</defs>
</svg>
