<svg width="152" height="140" viewBox="0 0 152 140" fill="none" xmlns="http://www.w3.org/2000/svg">
<g clip-path="url(#clip0_1607_14)">
<path d="M151.004 63.7792C150.597 61.7371 149.995 59.7388 149.205 57.8122C148.665 56.5175 148.045 55.2574 147.35 54.0388L125.4 15.9775C124.561 14.5073 123.598 13.1108 122.523 11.8031C121.975 11.1483 121.436 10.5426 120.888 9.94504C120.339 9.34422 119.757 8.7731 119.147 8.23426C113.303 2.94838 105.703 0.030444 97.8271 0.0490385H53.9288C48.3341 0.0395526 42.8361 1.5089 37.9903 4.30861C33.1444 7.10832 29.1225 11.1393 26.3309 15.9939L4.35727 54.0879C1.54299 58.9352 0.0605469 64.4422 0.0605469 70.049C0.0605469 75.6559 1.54299 81.1629 4.35727 86.0102L26.3309 124.047C29.5404 129.637 34.3654 134.123 40.1707 136.914C41.7556 137.659 43.3954 138.28 45.0755 138.772C45.5333 138.911 45.9585 139.026 46.4163 139.141C46.874 139.255 47.3891 139.37 47.8714 139.452C48.3537 139.533 49.0158 139.656 49.6125 139.738H49.7271C50.1276 139.795 50.5446 139.853 50.986 139.885L52.0649 139.967C52.6944 139.967 53.2912 140.024 53.9206 140.024H97.7946C103.39 140.021 108.887 138.542 113.731 135.738C118.576 132.933 122.597 128.901 125.392 124.047L147.366 85.953C149.137 82.9095 150.384 79.589 151.053 76.1307C151.135 75.615 151.249 75.1321 151.306 74.6165C151.347 74.2891 151.396 73.9698 151.437 73.6506C151.437 73.5442 151.437 73.4377 151.478 73.3313C151.779 70.141 151.619 66.924 151.004 63.7792Z" fill="#3CB4E5"/>
<path d="M68.4634 105.728V34.2715" stroke="white" stroke-width="3.67" stroke-linecap="round" stroke-linejoin="round"/>
<path d="M68.4634 34.2715V67.1188L114.741 50.691L68.4634 34.2715Z" fill="white"/>
</g>
<defs>
<clipPath id="clip0_1607_14">
<rect width="151.592" height="140" fill="white"/>
</clipPath>
</defs>
</svg>
