<svg width="152" height="140" viewBox="0 0 152 140" fill="none" xmlns="http://www.w3.org/2000/svg">
<g clip-path="url(#clip0_1607_18)">
<path d="M151.012 63.7792C150.605 61.7371 150.003 59.7388 149.214 57.8122C148.673 56.5175 148.053 55.2574 147.358 54.0388L125.409 15.9775C124.569 14.5073 123.606 13.1108 122.531 11.8031C121.984 11.1483 121.444 10.5426 120.896 9.94504C120.347 9.34422 119.765 8.7731 119.155 8.23426C113.311 2.94838 105.711 0.030444 97.8354 0.0490385H53.8553C48.2606 0.0395526 42.7626 1.5089 37.9167 4.30861C33.0709 7.10832 29.0489 11.1393 26.2573 15.9939L4.28374 54.0879C1.46946 58.9352 -0.0131836 64.4422 -0.0131836 70.049C-0.0131836 75.6559 1.46946 81.1629 4.28374 86.0102L26.2573 124.047C29.4669 129.637 34.2919 134.123 40.0971 136.914C41.682 137.659 43.3218 138.28 45.002 138.772C45.4598 138.911 45.885 139.026 46.3427 139.141C46.8005 139.255 47.3156 139.37 47.7979 139.452C48.2802 139.533 48.9422 139.656 49.539 139.738H49.6535C50.0541 139.795 50.4709 139.853 50.9123 139.885L51.9914 139.967C52.6209 139.967 53.2176 140.024 53.8471 140.024H97.7209C103.317 140.021 108.813 138.542 113.658 135.738C118.502 132.933 122.524 128.901 125.319 124.047L147.293 85.953C149.064 82.9095 150.31 79.589 150.979 76.1307C151.061 75.615 151.176 75.1321 151.233 74.6165C151.274 74.2891 151.323 73.9698 151.364 73.6506C151.364 73.5442 151.364 73.4377 151.364 73.3313C151.705 70.1469 151.587 66.9299 151.012 63.7792Z" fill="#3CB4E5"/>
<path d="M75.8044 50.9776C57.0025 50.9776 41.7319 70 41.7319 70C41.7319 70 56.9861 89.0225 75.8044 89.0225C94.6226 89.0225 109.877 70 109.877 70C109.877 70 94.6145 50.9776 75.8044 50.9776ZM75.8044 81.8686C72.6599 81.8686 69.6441 80.6184 67.4199 78.3929C65.1957 76.1673 63.945 73.1485 63.9428 70C63.945 66.8515 65.1957 63.8327 67.4199 61.6072C69.6441 59.3816 72.6599 58.1314 75.8044 58.1314C78.9481 58.1314 81.963 59.3819 84.1859 61.6077C86.4088 63.8335 87.6578 66.8523 87.6578 70C87.6578 73.1478 86.4088 76.1666 84.1859 78.3924C81.963 80.6181 78.9481 81.8686 75.8044 81.8686Z" fill="white"/>
</g>
<defs>
<clipPath id="clip0_1607_18">
<rect width="151.592" height="140" fill="white"/>
</clipPath>
</defs>
</svg>
