<svg width="278" height="439" viewBox="0 0 278 439" fill="none" xmlns="http://www.w3.org/2000/svg">
<path d="M138.474 0.799963C180.074 0.799963 213.474 12.2 238.674 35C264.274 57.4 277.074 88.4 277.074 128C277.074 167.2 264.474 197.2 239.274 218C214.074 238.4 180.674 248.6 139.074 248.6L136.674 294.8H62.8742L59.8742 192.8H86.8742C121.674 192.8 148.474 188.2 167.274 179C186.074 169.8 195.474 153 195.474 128.6C195.474 111 190.274 97 179.874 86.6C169.874 76.2 156.074 71 138.474 71C120.074 71 105.674 76 95.2742 86C85.2742 96 80.2742 109.8 80.2742 127.4H1.07422C0.67422 103 5.87422 81.2 16.6742 62C27.4742 42.8 43.2742 27.8 64.0742 17C85.2742 6.19996 110.074 0.799963 138.474 0.799963ZM99.4742 438.2C84.2742 438.2 71.6742 433.6 61.6742 424.4C52.0742 414.8 47.2742 403 47.2742 389C47.2742 375 52.0742 363.4 61.6742 354.2C71.6742 344.6 84.2742 339.8 99.4742 339.8C114.274 339.8 126.474 344.6 136.074 354.2C145.674 363.4 150.474 375 150.474 389C150.474 403 145.674 414.8 136.074 424.4C126.474 433.6 114.274 438.2 99.4742 438.2Z" fill="#52B5E5"/>
</svg>
