<svg width="17" height="16" viewBox="0 0 17 16" fill="none" xmlns="http://www.w3.org/2000/svg">
<path d="M16.9333 7.28472C16.8876 7.05129 16.8201 6.82289 16.7315 6.60266C16.6709 6.45468 16.6014 6.31064 16.5234 6.17134L14.061 1.82072C13.9668 1.65266 13.8588 1.49303 13.7382 1.34356C13.6768 1.26871 13.6163 1.19947 13.5548 1.13117C13.4932 1.06249 13.428 0.99722 13.3595 0.935628C12.7039 0.331421 11.8513 -0.00211536 10.9678 1.00961e-05L6.04313 1.00961e-05C5.4155 -0.0010742 4.79871 0.166881 4.25509 0.486903C3.71147 0.806926 3.26028 1.26767 2.94711 1.82259L0.48202 6.17695C0.166305 6.73103 0 7.36051 0 8.00141C0 8.64231 0.166305 9.27178 0.48202 9.82586L2.94711 14.1737C3.30716 14.8127 3.84844 15.3254 4.4997 15.6445C4.6775 15.7296 4.86145 15.8006 5.04994 15.8568C5.10129 15.8728 5.14899 15.8859 5.20035 15.899C5.2517 15.9121 5.30946 15.9252 5.36357 15.9345C5.41767 15.9439 5.49197 15.9579 5.55891 15.9673H5.57174C5.61668 15.9738 5.66345 15.9804 5.71297 15.9841L5.83403 15.9935C5.90465 15.9935 5.97159 16 6.04221 16H10.9641C11.5919 15.9996 12.2085 15.8306 12.7519 15.51C13.2954 15.1894 13.7466 14.7285 14.0601 14.1737L16.5252 9.81932C16.7239 9.47143 16.8637 9.09187 16.9388 8.69658C16.948 8.63763 16.9608 8.58243 16.9672 8.52349C16.9718 8.48606 16.9773 8.44957 16.9819 8.41308C16.9819 8.40092 16.9819 8.38875 16.9819 8.37659C17.0172 8.01214 17.0008 7.64441 16.9333 7.28472Z" fill="#52B5E5"/>
</svg>
